<svg width="50" height="188" viewBox="0 0 50 188" fill="none" xmlns="http://www.w3.org/2000/svg">
<path d="M0.935979 148.831L24.1479 186.613C24.5383 187.249 25.4617 187.249 25.852 186.613L49.064 148.831C49.4734 148.165 48.994 147.308 48.212 147.308L39.8255 147.308C39.2732 147.308 38.8255 146.86 38.8255 146.308L38.8255 1C38.8255 0.447715 38.3778 -5.08024e-07 37.8255 -5.32165e-07L11.8892 -1.66588e-06C11.3369 -1.69002e-06 10.8892 0.447712 10.8892 0.999997L10.8892 146.308C10.8892 146.86 10.4414 147.308 9.88916 147.308L1.78802 147.308C1.00603 147.308 0.526632 148.165 0.935979 148.831Z" fill="#26473B"/>
</svg>
