<svg width="141" height="141" viewBox="0 0 141 141" fill="none" xmlns="http://www.w3.org/2000/svg">
<rect y="11" width="130" height="130" rx="10.3659" fill="url(#paint0_linear)"/>
<path d="M71.746 55.559V60.251H57.8738V55.559H71.746ZM56.8807 62.2566H72.7391C73.2607 62.2566 73.7411 61.8085 73.7411 61.2529V54.6015C73.7411 54.0351 73.2588 53.5996 72.7391 53.5996H56.8807C56.3507 53.5996 55.8787 54.0364 55.8787 54.6015V61.2529C55.8787 61.8072 56.3487 62.2566 56.8807 62.2566Z" fill="white" stroke="#26473B" stroke-width="0.38"/>
<path d="M76.1089 51.8145V60.2478H53.7412V51.8145H76.1089ZM52.7393 62.2534H77.1021C77.665 62.2534 78.104 61.7999 78.104 61.2497V50.8119C78.104 50.2613 77.6645 49.81 77.1021 49.81H52.7393C52.1845 49.81 51.7461 50.2626 51.7461 50.8119V61.2497C51.7461 61.7985 52.184 62.2534 52.7393 62.2534Z" fill="white" stroke="#26473B" stroke-width="0.38"/>
<path d="M92.9436 62.2572V100.775H36.8156V62.2572H92.9436ZM35.8137 102.769H93.9367C94.4874 102.769 94.9387 102.33 94.9387 101.767V61.2535C94.9387 60.7341 94.493 60.2515 93.9367 60.2515H35.8137C35.2476 60.2515 34.81 60.735 34.81 61.2535V101.767C34.81 102.329 35.2532 102.769 35.8137 102.769Z" fill="white" stroke="#26473B" stroke-width="0.38"/>
<path d="M68.6073 76.7256V79.3843H61.1413V76.7256H68.6073ZM60.1376 81.3432H69.611C70.1649 81.3432 70.6025 80.9004 70.6025 80.3412V75.7237C70.6025 75.1722 70.1636 74.7305 69.611 74.7305H60.1376C59.5873 74.7305 59.1445 75.1714 59.1445 75.7237V80.3412C59.1445 80.9012 59.586 81.3432 60.1376 81.3432Z" fill="white" stroke="#26473B" stroke-width="0.38"/>
<path d="M35.8137 78.3033H60.1385C60.6518 78.3033 61.1422 77.8742 61.1422 77.3376C61.1422 76.7784 60.6563 76.3444 60.1385 76.3444H35.8137C35.2545 76.3444 34.81 76.7837 34.81 77.3376C34.81 77.8689 35.259 78.3033 35.8137 78.3033Z" fill="white" stroke="#26473B" stroke-width="0.38"/>
<path d="M69.6109 78.3033H93.9358C94.4807 78.3033 94.9377 77.8697 94.9377 77.3376C94.9377 76.7829 94.4851 76.3444 93.9358 76.3444H69.6109C69.05 76.3444 68.6072 76.7839 68.6072 77.3376C68.6072 77.8687 69.0545 78.3033 69.6109 78.3033Z" fill="white" stroke="#26473B" stroke-width="0.38"/>
<rect x="97" width="44" height="44" rx="5" fill="white"/>
<rect x="106" y="20.5793" width="6" height="15.9983" rx="3" transform="rotate(-45 106 20.5793)" fill="#095037"/>
<rect width="6" height="23.5454" rx="3" transform="matrix(-0.707107 -0.707107 -0.707107 0.707107 134.487 15.2429)" fill="#095037"/>
<defs>
<linearGradient id="paint0_linear" x1="0" y1="11" x2="146.335" y2="115.159" gradientUnits="userSpaceOnUse">
<stop stop-color="#1F4133"/>
<stop offset="0.494792" stop-color="#085439"/>
<stop offset="1" stop-color="#1F4133"/>
</linearGradient>
</defs>
</svg>
