<svg width="407" height="555" viewBox="0 0 407 555" fill="none" xmlns="http://www.w3.org/2000/svg">
<path fill-rule="evenodd" clip-rule="evenodd" d="M184.194 153.561L8.35437 268.533L0 283.253L169.48 377.936L364.807 213.59L362.421 205.677L184.194 153.561Z" fill="white"/>
<path fill-rule="evenodd" clip-rule="evenodd" d="M184.207 153.561L3.78223 269.033L165.42 340.554L355.729 203.589L184.207 153.561Z" fill="#0A4135"/>
<path fill-rule="evenodd" clip-rule="evenodd" d="M184.207 153.561L3.78223 269.033L8.8341 271.268L348.334 208.911L355.73 203.589L184.207 153.561Z" fill="#122921" fill-opacity="0.6"/>
<path fill-rule="evenodd" clip-rule="evenodd" d="M0.397949 282.543L74.7908 472.817L226.405 555L160.651 353.451L0.397949 282.543Z" fill="#034532"/>
<path fill-rule="evenodd" clip-rule="evenodd" d="M6.73975 285.349L223.305 545.5L160.651 353.451L6.73975 285.349Z" fill="black" fill-opacity="0.521569"/>
<path fill-rule="evenodd" clip-rule="evenodd" d="M240.827 554.985L406.037 415.86L365.544 213.394L174.291 351.037L240.827 554.985Z" fill="#84AE8A"/>
<path fill-rule="evenodd" clip-rule="evenodd" d="M258.633 273.469H13.8091L165.42 340.554L258.633 273.469Z" fill="#2C6E54"/>
<path fill-rule="evenodd" clip-rule="evenodd" d="M406.037 415.861L284.275 271.884L321.168 245.332L335.357 235.12L365.544 213.394L406.037 415.861ZM275.406 261.398L184.208 153.561L355.73 203.589L339.219 215.472L329.058 222.784L275.406 261.398Z" fill="#034532" fill-opacity="0.439216"/>
<path fill-rule="evenodd" clip-rule="evenodd" d="M239.523 550.988L377.472 273.469H282.071L174.291 351.037L239.523 550.988Z" fill="#FEFEFE" fill-opacity="0.65098"/>
<path d="M227.745 234.554C227.745 232.913 229.076 231.588 230.712 231.588H231.117C233.012 231.155 236.082 231.372 237.663 230.764C241.459 230.01 240.528 226.259 241.149 223.309C242.13 218.643 244.643 223.661 245.701 217.992C247.575 207.985 242.481 202.251 241.907 190.108C240.392 179.68 238.002 159.95 238.874 149.708C239.343 144.192 238.876 132.353 239.255 126.763C239.458 123.728 236.614 123.727 236.787 120.689C237.028 116.443 237.246 112.78 237.415 108.553C237.743 100.406 237.923 92.3328 237.923 84.4651C237.923 79.052 238.119 62.2788 238.119 57.3401C238.119 51.4222 241.34 49.9475 247.787 47.669C249.001 47.1167 249.339 47.091 249.693 46.719C249.991 46.5 249.641 45.0521 249.457 44.4324C249.16 43.4068 248.994 41.2192 248.898 40.92C248.806 40.6182 248.602 38.7335 248.53 38.4915C248.455 38.2465 248.276 37.3091 248.258 37.1315C248.246 36.9517 248.215 37.1641 247.801 37.2155C247.384 37.2642 246.417 37.2278 246.265 36.0626C246.104 34.9005 245.988 34.074 245.919 33.7358C245.839 33.4002 246.017 32.1011 246.074 31.6992C246.134 31.3015 246.126 30.3964 246.559 30.126C246.668 30.0148 246.637 29.8782 246.49 29.647C246.352 29.4184 246.34 28.8998 246.383 28.6199C246.421 28.3468 246.377 27.6269 246.358 27.2871C246.335 26.9396 246.234 26.3387 246.215 26.4997C246.191 26.6608 246.039 26.5703 246.162 26.1101C246.28 25.6487 246.276 25.2118 246.126 25.4945C245.976 25.7718 246.061 25.3633 246.162 25.1401C246.262 24.925 246.304 24.1548 246.166 24.4486C246.028 24.7424 246.186 24.1237 246.206 23.8913C246.224 23.665 246.27 23.3717 246.099 23.5761C245.932 23.7843 245.875 23.5447 245.932 23.1469C245.992 22.7412 245.903 22.5248 245.814 22.7507C245.722 22.9686 245.822 22.3948 245.912 22.2717C245.993 22.1486 245.971 21.7589 245.817 21.9687C245.663 22.1796 245.858 21.7006 245.94 21.5829C246.03 21.4586 246.134 21.2001 245.976 21.3528C245.817 21.5047 245.837 21.2365 246.005 21.1284C246.175 21.0091 246.486 20.4465 246.318 20.5965C246.143 20.7522 246.346 20.2854 246.555 20.1677C246.756 20.0472 247.147 19.3438 247.028 19.4209C246.911 19.4965 247.028 19.1448 247.398 18.9569C247.767 18.7578 248.083 18.344 248.473 18.3072C248.862 18.2654 248.865 17.9259 248.53 17.9976C248.192 18.072 248.845 17.858 249.005 17.8488C249.151 17.8431 249.231 17.5823 248.898 17.5091C248.575 17.4331 248.833 17.325 249.166 17.3737C249.496 17.4212 249.507 17.1884 249.144 17.1761C248.772 17.1573 249.028 16.9234 249.527 17.1209C250.033 17.3115 250.117 17.4251 250.221 17.524C250.328 17.616 250.43 17.0492 249.907 16.7447C249.397 16.4363 249.941 16.5391 250.261 16.7527C250.589 16.9598 250.576 16.9828 250.47 16.551C250.367 16.1061 250.416 15.5174 250.669 16.332C250.92 17.1451 250.815 17.1815 250.986 16.3995C251.147 15.6217 251.16 15.094 251.16 16.1291C251.16 17.1639 251.543 15.2995 251.8 15.0778C252.067 14.8546 252.087 14.9693 251.953 15.2508C251.818 15.5296 252.212 14.8761 252.351 14.6786C252.492 14.4795 252.409 14.6379 252.367 14.9248C252.326 15.2224 252.838 14.4892 253.102 14.297C253.359 14.1022 253.276 14.2916 253.137 14.5336C252.992 14.7707 253.586 14.2333 253.758 14.0753C253.941 13.9261 253.812 14.0995 253.717 14.4619C253.622 14.8316 254.412 13.9234 254.782 13.7681C255.166 13.599 255.077 13.6435 254.851 13.9522C254.631 14.2579 255.407 13.9073 255.568 13.7531C255.724 13.5963 255.515 13.8951 255.667 14.0941C255.813 14.297 256.349 13.9925 256.146 13.7858C255.947 13.5744 256.162 13.4732 256.445 13.7692C256.733 14.0711 257.112 13.8805 256.808 13.6312C256.501 13.3796 257.125 13.6231 257.396 13.9073C257.67 14.1927 258.159 14.1252 257.967 13.841C257.776 13.5514 258.046 13.841 258.418 14.0155C258.787 14.1915 259.377 14.3729 259.146 14.1727C258.913 13.9764 259.123 13.9522 259.575 14.404C260.028 14.8478 260.228 14.8086 260.102 14.5973C259.982 14.389 260.593 14.6053 260.74 15.1128C260.886 15.6271 260.986 15.0249 260.886 14.86C260.787 14.6962 261.055 14.8355 261.166 15.1089C261.273 15.3793 261.928 15.2037 261.676 14.972C261.42 14.7476 262.16 14.9655 262.209 15.6136C262.269 16.2603 262.704 15.5972 262.461 15.1845C262.223 14.7653 262.643 15.0533 262.765 15.5703C262.88 16.0953 263.086 16.3239 263.19 15.9841C263.293 15.6432 263.439 14.8205 263.696 15.9803C263.949 17.1301 263.903 16.5391 264.022 16.2035C264.136 15.8637 264.279 16.1966 264.271 16.8919C264.268 17.585 264.474 17.5213 264.685 17.1573C264.903 16.7891 265.019 17.0381 264.713 17.6295C264.412 18.2086 264.574 17.8596 265.195 17.7906C265.823 17.7173 265.966 17.6525 265.531 17.9608C265.083 18.2611 265.809 18.245 266.056 18.2815C266.29 18.3141 266.323 18.2086 266.007 18.6037C265.689 18.9891 266.512 18.7712 266.758 18.8487C267.005 18.9258 266.727 18.9933 266.411 19.1935C266.092 19.3926 266.867 19.4129 267.559 19.9337C268.25 20.4492 267.812 20.3502 267.181 20.2731C266.553 20.1922 267.878 21.1092 268.145 21.4448C268.411 21.7831 267.965 21.7589 267.208 21.6995C266.453 21.622 267.437 22.3703 267.668 22.8251C267.906 23.2811 267.61 23.158 267.181 23.0403C266.74 22.9183 267.487 23.369 267.58 23.6329C267.683 23.8845 267.871 24.0076 267.46 23.9236C267.047 23.8342 267.134 23.9305 267.32 24.1349C267.507 24.3416 267.423 24.9085 267.25 24.5107C267.076 24.1023 267.197 25.1401 267.254 25.4201C267.31 25.7043 267.097 25.5486 267.028 25.3633C266.963 25.175 267.066 26.1576 267.233 26.6999C267.404 27.2411 267.116 26.7529 266.915 26.5415C266.717 26.3386 267.119 27.4064 267.184 27.8244C267.243 28.2398 267.028 27.8448 266.966 27.6879C266.909 27.5253 267.089 28.1777 267.141 28.4615C267.197 28.7403 267.089 28.7226 266.985 28.5224C266.873 28.3153 266.873 28.911 267.028 29.153C267.187 29.3885 267.089 29.5534 266.932 29.3532C266.77 29.153 266.74 29.6305 266.902 29.5656C267.059 29.5143 267.741 29.3221 268.039 29.9852C268.346 30.6372 268.541 31.4139 268.534 31.8454C268.529 32.2853 268.688 32.4882 268.665 32.9062C268.65 33.3269 268.411 34.5312 268.038 35.1318C267.663 35.7366 267.499 36.2697 266.976 36.4511C266.448 36.6337 266.077 36.7718 265.766 36.6851C265.449 36.5999 265.667 37.1641 265.641 37.9231C265.613 38.6821 265.605 40.1637 265.522 40.7969C265.443 41.429 265.73 43.1997 265.795 43.4544C265.986 44.1658 266.838 44.4623 266.955 44.4799C267.078 44.4934 267.164 45.148 267.53 45.1254C267.84 45.094 268.518 44.9847 268.951 45.2052C268.919 45.2255 273.459 49.9797 277.379 50.8918C281.171 52.2218 289.894 52.4125 289.894 58.4795C290.843 68.5349 296.725 74.7914 303.171 89.018C303.223 91.2789 306.965 92.6212 301.845 99.8274C298.624 108.173 289.461 113.198 289.516 119.554C289.553 123.66 290.657 126.833 290.652 130.933C290.652 134.422 285.909 133.021 282.114 138.331C281.738 139.658 277.564 136.811 277.564 142.123C277.641 146.772 277.515 160.511 277.758 165.074C278.193 173.425 282.001 181.585 283.067 189.162C284.448 198.982 283.263 207.902 285.163 215.942C285.357 218.265 285.659 224.636 285.542 224.947C285.529 226.724 285.458 228.248 285.372 229.594C285.413 230.6 285.695 231.649 285.821 232.154C285.96 232.711 286.115 233.895 286.039 234.416C285.97 234.934 285.487 236.31 285.156 237.108C284.934 237.654 284.901 237.518 284.843 237.671C284.818 237.806 284.795 237.912 284.761 238.004L284.722 238.187C284.56 238.993 284.241 239.254 283.834 239.382C283.772 239.54 283.708 239.736 283.645 239.971C283.777 240.925 285.95 240.925 284.32 244.175C283.946 244.929 283.614 245.668 283.213 246.398C283.213 246.681 283.201 246.953 283.193 247.18C283.244 249.201 282.199 249.426 282.007 249.554C281.817 249.674 282.082 250.176 282.13 251.151C282.184 253.102 279.954 252.715 279.258 252.753C278.561 252.784 275.954 252.626 273.847 252.488C273.458 252.465 273.026 252.431 272.576 252.401C271.277 252.496 269.979 252.438 268.991 252.132C268.346 252.071 267.832 252.016 267.559 251.96C266.683 251.791 266.838 251.547 266.789 250.055C266.739 248.57 267.507 248.221 267.713 248.087C267.924 247.962 267.878 247.711 267.633 246.85C267.387 245.986 268.211 244.635 268.468 244.384C268.729 244.136 269.269 243.396 269.541 243.075C269.813 242.767 270.78 241.136 270.871 240.964C270.963 240.795 270.719 240.645 270.507 240.372C270.3 240.116 269.92 240.05 269.438 239.487C268.955 238.929 269.174 238.855 268.887 237.898C268.601 236.947 269.448 235.849 269.709 235.248C269.97 234.649 269.64 233.742 269.372 233.254C269.093 232.764 268.771 232.3 268.418 231.773C268.063 231.23 267.856 230.518 267.725 229.525C267.598 228.53 268.078 227.953 268.484 226.303C268.701 225.643 268.829 225.048 268.902 224.512C268.734 222.197 268.422 217.081 267.613 212.349C267.268 210.366 266.82 206.138 266.363 201.359C266.867 221.021 262.026 219.161 261.585 226.148C261.37 229.561 260.607 232.337 260.372 233.01C260.226 233.481 260.807 233.986 260.807 234.554C260.807 236.19 259.478 237.518 257.843 237.518L249.055 237.077C247.418 237.077 226.761 238.935 226.761 237.302L227.745 234.554Z" fill="#0A4135"/>
<path d="M241.088 72.3782C241.088 88.5601 239.839 87.5629 239.839 104.333C239.839 108.146 239.214 116.45 241.088 115.823C245.269 116.866 250.195 117.287 254.456 117.287C261.765 117.287 263.922 114.986 271.589 114.986C279.947 114.986 257.175 100.142 257.175 78.015C256.547 70.9128 261.348 62.9246 262.606 52.6906C262.95 51.818 263.517 51.37 264.12 50.7073C265.696 48.9753 267.688 47.2475 268.861 45.1976L268.746 45.1396C268.305 45.0855 268.534 44.6445 268.311 44.3196C267.638 42.1899 258.359 50.45 252.962 49.6626C250.786 49.2296 250.128 48.4936 249.339 46.2354C248.21 44.493 249.082 49.8873 248.192 55.6686C247.147 60.0524 241.927 66.7388 241.088 72.3782Z" fill="#FEFEFE"/>
<path d="M253.731 59.1276C252.478 69.3632 251.228 71.356 251.857 78.4578C251.857 86.6776 251.536 89.8935 249.822 100.164C249.424 100.307 249.19 112.219 248.806 112.404C246.795 113.37 246.977 114.341 244.363 115.15C243.045 115.555 241.753 113.609 242.188 110.507C243.478 101.371 245.379 90.3902 246.015 83.0272C246.734 78.3336 248.957 64.9875 250.077 58.0154C250.333 56.4015 249.259 54.8954 249.543 54.1851C250.117 52.2812 252.163 50.0775 253.117 50.3763C255.411 52.1217 257.469 53.4356 257.402 53.6819C256.736 56.1779 254.518 55.0929 253.731 59.1276Z" fill="#0A4135"/>
<path d="M77.465 71.9811C76.9457 74.7924 76.7171 76.5163 75.8185 81.2437C75.6846 82.3759 74.855 85.9155 72.9339 90.4496C71.8367 92.5099 69.7625 93.4208 70.0115 94.5733L70.2819 95.0143C71.0397 95.7845 74.2587 95.6978 76.3692 95.9455C77.6571 96.1346 80.3349 97.4555 82.3642 98.9624C84.2895 100.397 85.9091 102.418 86.2597 105.426C85.7131 123.568 90.8045 129.112 89.3985 138.176C89.2025 142.274 89.7855 144.608 88.4243 153.387C88.1539 157.197 85.6928 158.654 85.6928 166.651C85.5682 170.197 84.7171 172.006 84.7171 175.624C84.7171 178.533 91.934 192.858 91.934 195.719C91.934 200.194 94.6685 208.772 96.4194 213.072C98.1755 222.239 92.2995 242.032 90.7002 248.834C89.8844 251.165 89.4499 254.336 88.6314 256.893C87.8156 259.69 85.7212 259.69 88.7492 265.279C89.8046 268.18 91.8922 270.287 96.5494 271.917C102.139 274.363 105.399 272.366 105.399 275.411C105.399 278.643 100.16 279.023 95.0352 279.253C92.0828 278.973 88.3986 278.904 83.0434 275.294C82.5333 274.884 81.9691 274.967 81.9922 275.601C82.1114 277.274 80.1401 277.54 75.591 277.038C71.8662 276.808 71.1655 277.393 70.8165 273.201C70.6174 273.143 71.4551 260.858 72.8189 251.303C72.7054 243.942 76.6085 223.021 76.5261 221.654C76.4367 215.654 73.0812 213.151 71.2575 210.342C69.132 207.068 68.4229 203.951 67.1592 203.321C64.6279 202.933 65.3949 209.147 63.847 215.022C59.7544 226.922 62.2872 226.533 60.5322 232.58C59.726 236.709 58.7925 238.56 58.58 243.11C58.4174 246.662 62.0935 245.726 60.3266 251.797C60.2764 251.969 60.2764 252.263 60.3362 252.668C61.7 261.445 65.2135 266.325 64.9945 271.801C64.9121 272.358 64.3951 274.715 64.0637 274.715C60.9909 274.715 66.6234 280.183 71.2832 284.726C73.9595 287.175 78.5001 289.033 76.7535 291.716C74.195 296.139 67.2838 293.343 64.1814 293.343C57.1943 293.343 55.6817 286.01 50.6701 286.01C49.5065 286.24 49.3945 284.147 49.7381 281C49.6215 277.393 48.0548 276.068 48.1062 274.248C48.1496 272.918 50.0005 273.833 49.7381 272.499C49.4144 270.833 47.9938 272.15 47.6448 268.31C47.6448 265.166 42.8687 253.155 42.8687 249.442C42.8687 236.115 44.5382 219.145 44.5382 200.982C44.5382 199.703 44.7507 186.02 42.5872 184.987C41.0017 184.23 39.2697 187.327 39.0776 190.25C38.6852 194.542 35.1744 192.785 31.6647 191.812C20.547 187.521 22.2909 186.359 22.3032 183.232C22.3193 178.944 26.6002 167.082 27.2687 163.145C27.5176 162.357 31.1803 148.173 32.8985 143.191C34.568 145.301 35.0402 142.322 35.0133 142.191C34.736 140.858 34.0119 134.851 31.8998 137.41C31.3425 138.102 30.2318 138.187 31.5658 140.522C36.1861 147.274 34.8806 162.551 33.1217 165.984C32.0663 168.052 24.3612 155.672 24.2553 155.534C20.7418 151.63 13.5261 143.832 13.5261 138.564C13.882 133.988 19.7661 125.105 22.3032 120.62C27.1793 114.187 30.7243 111.592 31.4699 105.211C33.6345 96.2903 37.8342 96.9074 39.8949 96.392C46.7274 95.6897 52.1057 95.5666 52.5981 92.3733C52.7999 91.0486 56.3663 89.4374 55.8957 87.4255C55.7346 86.7409 55.9402 84.0661 55.5747 82.491C55.2502 81.0581 54.3601 80.7225 54.1096 80.0068C53.0503 74.5043 54.6576 74.7372 54.4831 72.4394C54.426 70.5279 54.5833 67.7174 55.2096 66.8165C57.4149 62.9927 60.788 59.8187 66.6115 59.6741C73.7566 60.7713 78.2877 66.7598 77.465 71.9811Z" fill="#2C6E54"/>
<path d="M70.2009 94.8655C70.6554 95.3702 70.3064 98.313 70.991 100.774C71.681 103.233 73.2385 105.487 73.398 106.407C73.7781 108.631 78.7854 117.188 78.6869 121.518C78.6083 124.916 78.7598 124.087 78.7598 129.145C78.7598 133.253 79.8083 138.997 80.9531 142.612C83.2248 149.758 83.6172 153.805 83.9785 157.59C84.2611 160.578 84.2043 161.769 82.4646 162.328C80.132 163.087 78.0778 162.812 73.1925 162.812C71.4455 162.812 66.8792 163.087 67.1296 162.435C67.6044 161.197 66.763 160.739 66.1486 160.63C64.1408 160.264 63.1083 160.518 58.9873 160.264C55.5532 160.062 49.3999 160.216 49.1467 156.836C48.9561 154.369 57.3826 140.305 57.4609 137.321C57.5176 134.921 62.0613 126.952 62.0613 124.2C62.0613 118.599 61.4346 116.696 60.895 113.072C59.5569 104.17 52.839 91.9311 54.9158 89.6456C57.2864 87.0319 54.5399 90.3291 59.1753 94.9318C61.4469 97.1873 65.3382 99.2914 67.0334 99.179C69.8232 98.9853 69.1048 93.6236 70.2009 94.8655Z" fill="#FEFEFE"/>
<path d="M70.9243 103.059C71.2829 103.58 69.6579 104.866 69.8677 105.535C70.0706 106.177 70.6443 107.881 71.011 108.835C73.1526 114.397 73.6316 119.908 75.8112 130.108C76.6557 134.067 76.9372 138.925 77.5229 142.208C79.1329 151.265 79.9936 153.266 79.2292 156.075C78.8369 157.506 78.4322 158.638 77.3173 158.674C76.1211 158.708 74.8251 157.563 72.8442 156.122C70.9258 154.732 70.6619 151.658 69.8715 147.907C68.7865 142.725 67.5853 136.049 67.5853 128.839C67.5853 119.745 64.9819 111.944 64.8058 107.099C64.7763 106.279 64.369 105.862 63.9321 105.206C63.2134 104.136 62.2868 103.283 62.9484 102.838C65.6028 101.058 65.304 99.7087 66.8815 99.7087C68.2737 99.7087 69.5766 101.094 70.9243 103.059Z" fill="#2C6E54"/>
<path fill-rule="evenodd" clip-rule="evenodd" d="M166.245 74.6017C164.36 70.3978 163.231 71.1825 161.219 70.7806C160.348 70.947 157.748 74.8452 157.797 73.9669C156.959 72.5341 156.363 69.4007 157.797 68.9435C157.697 69.5169 157.081 69.877 158.252 69.8551C160.195 66.5161 157.392 64.139 155.968 61.6373H157.338C155.619 58.3289 150.68 54.9316 152.316 51.1324C152.418 51.4883 152.327 52.0348 152.773 52.0444C152.259 45.0412 146.44 34.4661 142.267 33.3213C129.89 29.9267 127.406 39.625 123.087 46.5646C126.123 51.5152 120.58 55.5295 119.433 59.3533C118.955 60.9442 119.986 62.9562 119.433 64.3756C118.238 67.4293 115.046 68.4848 111.212 68.4859C100.983 81.6291 107.166 108.68 100.252 124.659C102.03 125.623 103.647 126.744 106.189 126.943C106.822 125.901 108.605 136.668 108.536 137.941C109.541 145.182 107.933 146.588 107.933 152.019C107.53 156.641 107.981 157.952 110.386 158.132C111.292 158.481 111.988 158.132 111.634 160.356C110.294 163.298 114.309 176.365 113.953 186.312C118.044 185.828 116.569 189.718 116.708 190.458C116.569 192.21 115.694 198.452 116.378 209.725C116.859 217.659 120.945 227.177 121.392 235.866C123.217 249.541 119.971 254.7 119.373 259.631C117.965 265.463 123.868 265.392 124.62 265.228C124.795 265.314 131.055 266.031 130.254 262.411C130.244 260.016 129.954 255.5 130.453 252.963C130.995 250.215 129.648 247.448 129.849 243.912C130.036 240.672 126.765 234.65 126.958 231.231C128.042 212.151 129.711 193.846 130.052 192.033C129.764 189.308 131.262 186.875 131.764 184.941H135.419C135.065 187.123 135.59 187.876 135.873 189.967C136.924 191.795 136.668 208.393 136.746 210.14C136.774 211.906 137.291 229.23 137.088 233.857C137.088 236.838 134.574 246.521 134.877 247.733C135.232 249.15 133.873 254.57 132.868 258.59C132.65 260.104 132.232 261.593 133.255 263.492C133.871 264.63 137.64 265.053 140.507 264.826C141.288 265.092 143.926 265.026 142.116 250.952C141.916 245.923 143.926 234.256 144.528 230.441C147.344 215.359 148.349 216.969 149.758 209.725C150.719 199.062 148.349 193.643 149.556 185.8C148.725 182.152 154.267 184.175 157.338 183.114C155.17 171.21 156.792 158.217 155.968 146.124C155.295 136.274 153.26 127.712 153.229 122.376C153.488 120.728 153.488 119.569 155.053 118.266C157.415 114.994 157.015 113.314 160.468 111.135C159.636 110.447 161.63 110.016 160.993 109.13C161.989 107.693 162.986 106.254 164.19 105.021C163.787 103.902 165.068 94.1904 166.045 90.8878C167.014 87.443 164.752 77.5241 166.245 74.6017Z" fill="#0A4135"/>
<path d="M142.936 71.1667C143.611 69.2928 142.132 71.9786 147.779 74.1325C149.971 74.9675 140.774 78.7936 138.706 93.6522C138.249 96.8915 138.038 117.304 137.72 115.024C137.499 113.421 135.754 99.9275 135.754 95.9066C135.754 93.6522 134.248 89.1185 134.068 88.7327C132.449 85.2664 127.244 76.9185 126.897 74.3964C126.698 73.0069 124.823 70.7191 126.755 68.3539C131.351 62.716 125.463 68.8329 131.783 71.126C134.184 71.9947 135.816 83.6348 136.962 83.6632C138.072 83.6985 142.58 72.1857 142.936 71.1667Z" fill="#FEFEFE"/>
<path d="M366.762 110.322C367.535 107.274 367.672 104.8 367.095 100.572C366.942 98.2859 363.715 98.0415 361.353 95.3323C358.735 92.9497 356.735 90.4117 356.392 86.5457L356.156 86.487C356.336 83.6217 356.685 78.3685 356.686 78.2827C355.719 76.8585 354.885 73.6488 356.338 73.0745C356.273 73.6781 355.663 74.092 356.874 73.9908C358.656 70.3937 355.589 68.1221 353.939 65.6288L355.361 65.5339C353.349 62.2237 350.723 58.8638 352.153 54.8131C352.284 55.1745 352.229 55.7478 352.689 55.7279C351.77 49.1744 346.121 39.8791 341.789 37.5385C340.835 36.9272 339.781 36.4971 338.612 36.2945C327.281 34.3259 323.377 44.2767 320.251 52.5737C322.043 57.3792 317.532 60.9617 317.379 65.9389C318.062 67.1733 317.7 67.7279 318.386 68.9648C315.767 68.9973 316.619 70.7724 314.506 69.8936C313.87 71.9671 316.558 70.2354 315.923 72.3076C313.579 72.582 313.153 73.6179 312.257 73.808C307.527 80.8752 315.284 97.1055 318.589 102.868C320.611 106.398 324.073 108.696 324.79 111.238C327.931 122.327 316.899 133.137 317.008 145.007C317.192 165.003 328.061 184.279 323.548 205.418C323.701 208.08 321.989 211.91 321.946 217.824C321.572 222.508 323.819 229.511 323.501 234.564C324.738 240.714 325.285 244.949 324.59 247.62C324.755 250.117 323.813 249.1 323.98 251.599C324.94 252.518 320.115 260.562 320.118 262.575C318.955 264.642 321.335 269.417 323.611 270.87C329.795 268.967 330.105 268.035 331.735 259.612C332.012 253.908 332.285 254.687 332.795 252.015C332.697 250.534 335.874 253.568 337.801 255.489C342.057 261.838 345.287 259.876 350.957 259.408C353.546 259.196 355.19 259.37 357.814 258.336C358.703 256.829 354.349 256.189 351.845 256.001C350.126 255.864 347.508 255.854 345.467 252.777C342.199 248.519 339.154 245.854 339.116 243.561C337.277 232.208 342.362 216.561 343.617 205.334C345.92 205.387 347.041 204.409 348.528 203.751C349.336 176.235 361.172 157.23 356.558 126.682C358.021 125.715 359.417 126.494 359.702 125.617C361.226 122.647 362.113 120.128 361.539 117.004C361.223 115.315 359.979 114.746 360.026 113.114C362.378 112.3 362.768 112.914 366.762 110.322Z" fill="#4B8063"/>
<path fill-rule="evenodd" clip-rule="evenodd" d="M342.458 73.5256C343.789 74.8851 344.805 74.6044 343.654 77.6928C342.693 80.511 344.027 83.2876 343.618 84.0048C340.837 84.1904 340.876 79.0255 335.041 75.8566C329.482 71.6376 332.74 69.8147 330.288 69.9783C326.773 70.2128 326.656 74.0063 324.724 74.2521C320.693 74.0613 321.333 73.2929 321.29 72.6435C321.472 71.9425 326.009 74.623 327.265 67.6534C329.209 67.5237 328.741 65.6242 330.334 67.2645C330.94 67.8545 336.48 75.1871 338.2 75.0724C338.589 74.0143 336.198 69.4687 338.391 69.3223C339.7 69.235 341.204 72.2466 342.458 73.5256Z" fill="#FEFEFE"/>
<path d="M218.495 109.05C217.791 110.012 217.272 111.015 216.885 111.961C217.577 105.478 217.752 99.2088 216.941 93.521C216.537 90.4126 213.926 84.9266 214.088 82.2471C214.34 78.0226 216.726 74.0636 216.941 70.9718C217.265 66.3677 218.015 63.0207 218.166 62.9596C219.324 62.481 218.309 75.0574 219.442 88.4782C219.826 93.0349 220.261 106.741 218.495 109.05ZM184.885 69.6146C184.594 71.3802 185.039 76.388 184.48 78.4443C184.404 78.7019 184.323 78.952 184.238 79.2006C183.823 78.4885 183.262 77.6725 182.507 76.7446C181.693 75.9983 182.199 72.9468 182.423 71.0603C182.517 67.3046 182.408 65.271 182.846 63.772C183.292 62.25 183.936 64.2139 184.001 64.4208C184.442 65.7762 185.336 66.8628 184.885 69.6146ZM227.164 45.6384C227.164 43.5238 226.654 41.2567 225.633 39.8326C223.086 35.2479 214.63 35.8952 214.936 31.8866C215.344 25.2646 214.837 22.2056 214.121 17.0128C213.918 16.3666 213.748 15.8359 213.408 15.3156C211.795 12.8139 210.025 9.22404 206.988 5.09381C205.87 3.05405 200.708 0 198.026 0C194.6 0 188.653 3.46388 187.938 4.888C186.82 6.61831 185.905 11.6142 184.372 13.1373C181.929 16.1978 181.828 17.4201 181.728 24.0424C181.728 25.3269 182.846 32.6965 182.846 34.1282C182.846 37.3207 176.938 39.5458 176.938 43.3993C176.938 45.4848 175.716 52.1423 175.716 54.4019C175.716 55.7321 174.901 69.4181 174.901 70.7991C174.901 73.9571 175.61 78.1395 177.55 81.8042C177.756 82.0327 179.475 84.7399 180.509 85.5688C179.1 87.4017 177.731 89.0924 177.038 90.975C176.464 92.7049 175.62 96.5027 175.61 98.3104C175.603 100.738 174.61 106.647 174.595 109.109C174.526 121.238 174.486 133.601 174.467 145.676C174.461 149.795 174.457 153.875 174.456 157.906C173.782 164.224 174.805 162.511 176.735 162.284C178.924 162.185 179.821 162.003 180.707 162.185C181.19 162.284 181.19 163 181.19 163C181.202 171.346 182.32 179.873 183.181 184.294C185.21 190.96 186.509 194.69 188.657 201.15C190.204 205.844 188.499 211.379 187.846 214.216C186.025 219.087 188.82 219.272 190.059 220.633C192.194 222.982 190.216 224.633 190.273 227.286C190.273 227.286 190.273 231.488 194.322 232.387C204.443 233.272 198.985 219.317 198.985 219.317C198.985 219.317 198.019 217.808 198.779 212.451C199.941 209.459 198.574 206.69 199.989 202.925C200.834 198.558 200.044 194.164 199.989 190.729C199.623 185.057 203.696 173.412 204.162 163.33C204.162 163.33 204.062 162.895 204.725 163C205.637 163 207.524 163.405 208.52 163.405C209.157 163.457 209.13 163 209.13 163C209.13 151.491 213.324 135.726 215.764 120.31C215.764 121.323 215.764 122.197 215.749 122.444C215.658 124.119 217.577 123.367 217.34 121.374C217.402 120.817 217.434 119.424 217.687 118.958C218.116 117.489 218.994 118.374 219.033 118.57C219.152 119.191 218.9 121.18 219.018 121.813C219.159 122.506 219.231 123.56 216.901 123.798C216.091 123.953 215.556 124.226 215.238 124.531C214.425 125.451 215.906 126.154 216.281 126.121C217.226 125.742 218.998 125.907 220.46 125.257C221.48 124.809 221.25 124.567 221.63 123.792C222.31 122.898 222.502 122.511 223.086 121.779C224.439 120.627 223.899 117.818 223.775 116.452C223.599 112.197 225.024 104.93 225.463 101.23C226.889 92.7722 227.062 82.4324 227.062 74.7771C227.062 73.2616 226.551 58.1184 226.551 56.641C226.551 53.4157 227.772 56.6003 227.772 53.5859C227.772 50.3224 227.164 48.6187 227.164 45.6384Z" fill="#0F3329"/>
<path d="M206.515 35.2358C207.925 40.1137 211.282 41.4378 211.282 43.9079C211.282 45.6137 207.274 45.7483 206.191 46.9414C203.128 50.3088 201.851 52.3601 201.092 53.5532C198.845 57.0858 195.94 48.8747 193.615 46.0757C191.97 44.1022 187.589 46.2027 189.169 43.6909C191.01 40.7649 191.83 37.047 193.285 34.9119C195.532 31.6283 196.199 49.9803 200.337 49.9803C204.806 49.9803 205.313 31.0724 206.515 35.2358Z" fill="#FEFEFE"/>
</svg>
