<svg width="181" height="509" viewBox="0 0 181 509" fill="none" xmlns="http://www.w3.org/2000/svg">
<path fill-rule="evenodd" clip-rule="evenodd" d="M134.817 66.2289H132.923C132.923 66.2289 130.081 62.4454 130.081 61.0266C130.081 59.6078 129.844 54.8784 135.528 47.548C141.212 40.454 139.317 24.8472 139.08 20.5907C138.844 16.3343 136.712 10.6591 135.054 10.6591C133.396 10.6591 131.738 9.4768 131.265 8.29447C131.028 7.11213 125.581 4.03807 122.976 2.61927C120.37 1.20046 113.265 -0.691272 111.371 0.254596C109.239 1.43693 95.9765 1.20046 95.0291 2.14633C94.0818 3.32866 91.2398 3.0922 90.0556 3.0922C88.8714 3.0922 81.7664 5.69333 81.7664 5.69333C81.7664 5.69333 77.5034 11.605 78.6876 14.2061C79.8718 16.8073 78.4507 20.8272 78.2139 26.0295C77.9771 31.2318 77.9771 33.36 77.2666 34.3058C76.7929 35.2517 78.9244 36.907 78.9244 38.0893C78.9244 39.2716 76.0824 43.7645 74.8982 45.4198C73.7141 47.0751 72.5299 50.3856 75.1351 50.622C77.7402 50.8585 79.3981 52.5138 79.3981 54.4055C79.3981 56.0608 79.3981 57.2431 80.3454 58.4255C81.2928 59.6078 81.7664 59.8443 80.8191 61.2631C79.8717 62.6819 81.7664 62.4454 81.7664 64.3371C81.7664 66.2289 78.9244 71.4311 85.5558 70.9582C92.1871 70.4853 95.7397 72.8499 96.4502 73.7958C96.9238 74.7417 101.424 83.2545 101.424 83.2545C101.424 83.2545 86.2663 122.981 85.0821 126.528C83.8979 130.075 79.8718 150.884 79.8718 155.377C79.8718 159.87 78.2139 170.274 78.2139 170.274C78.2139 170.274 75.1351 174.531 73.7141 177.368C72.293 180.206 64.2407 189.665 64.2407 189.665C64.2407 189.665 58.5566 192.266 56.4251 192.739C54.5305 193.212 49.0833 195.576 47.8991 197.941C46.7149 200.306 49.0833 202.197 49.0833 202.197C49.0833 202.197 49.3201 205.981 50.9779 206.69C52.6358 207.636 53.5831 209.764 52.399 210.947C51.2148 212.129 50.5043 214.021 51.2148 215.439C51.9253 216.858 54.0568 215.676 55.7146 215.203C57.3725 214.73 55.9515 219.696 57.6093 219.696C59.2671 219.696 61.8723 219.932 63.5302 219.223C65.188 218.277 69.6879 216.149 71.8194 215.203C74.1877 214.257 77.2666 212.602 77.2666 212.602C77.2666 212.602 75.6087 224.662 75.3719 226.081C75.135 227.499 72.0562 263.206 72.0562 272.664C72.0562 282.123 72.5299 285.434 75.3719 282.596C78.2139 279.759 78.2139 280.468 77.9771 284.251C77.7402 288.035 69.9247 349.28 69.9247 353.063C69.9247 356.847 71.3457 358.975 72.0562 361.103C72.5299 362.995 73.9509 364.65 70.872 366.542C67.7932 368.434 67.7932 383.095 66.8459 389.479C65.8985 395.864 65.4248 397.992 61.8723 399.884C58.5566 401.539 51.9253 418.801 49.0833 423.294C46.2413 427.787 43.1624 431.334 45.2939 435.354C47.6623 439.374 48.1359 441.738 45.0571 443.157C41.9782 444.576 40.3204 447.414 38.6626 448.832C37.2415 450.251 37.2416 454.271 37.2416 454.271C37.2416 454.271 32.0312 456.399 29.426 458.528C26.8208 460.892 19.9526 462.311 16.6369 462.547C13.3213 462.784 5.74259 462.547 3.37424 463.02C1.0059 463.493 0.532209 464.203 0.0585406 466.094C-0.415128 467.986 1.95322 470.587 8.34774 472.952C14.7423 475.317 32.5049 475.317 38.4257 475.317C44.3466 475.317 55.9515 471.06 55.9515 471.06V475.317C55.9515 475.317 68.03 475.553 70.1615 475.553C72.5299 475.553 80.1086 475.317 80.1086 471.533C80.1086 467.75 80.1086 461.602 79.8718 459.71C79.6349 458.055 78.4507 454.035 81.7664 452.616C85.3189 451.197 85.0821 445.522 88.3978 440.793C91.4766 436.3 100.713 414.072 103.555 399.884C106.397 385.696 111.134 369.852 111.844 366.069C112.792 362.285 117.055 342.659 117.055 342.659C117.055 342.659 119.66 371.744 120.844 377.419C122.028 383.095 126.528 389.479 127.239 393.499C127.712 397.519 127.002 400.83 125.344 406.741C123.686 412.416 125.581 420.456 125.581 425.186C125.581 429.679 123.449 444.103 123.449 448.832C123.449 453.798 122.739 453.325 119.66 454.035C116.818 454.508 116.344 456.872 117.055 459.946C118.002 463.02 113.976 473.661 113.976 473.661C113.976 473.661 107.108 477.445 107.108 480.519C107.108 483.593 95.9765 491.396 94.5555 492.579C93.1345 493.761 91.7134 495.416 86.5031 496.362C81.2927 497.308 80.1086 499.2 80.1086 501.565C80.1086 503.929 77.7402 504.639 83.1874 506.53C88.6346 508.186 91.2398 509.368 98.5817 508.895C105.924 508.186 125.344 505.821 127.239 503.929C129.133 502.274 134.58 494.234 134.58 494.234L139.554 496.599C139.554 496.599 147.133 494.943 149.027 493.998C150.685 493.052 151.159 482.647 151.159 482.647C151.159 482.647 152.106 478.627 152.106 474.607C152.106 470.587 150.448 469.169 156.369 464.676C162.29 460.183 162.764 454.271 163.948 448.123C165.132 441.738 172 394.918 167.974 381.439C163.948 367.961 163.001 360.63 163.001 352.827C163.001 345.023 162.527 317.83 162.527 314.283C162.527 310.499 163.948 286.853 163.948 286.853C163.948 286.853 171.053 285.67 172.711 284.251C174.369 282.833 176.5 280.468 176.5 280.468L181 282.36C181 282.36 179.816 272.901 179.105 268.172C178.158 263.206 173.895 229.155 171.053 224.189C168.211 218.986 164.658 200.306 164.658 198.177C164.658 195.813 163.474 193.685 164.658 192.502C165.843 191.32 167.264 189.192 167.737 183.28C168.211 177.605 174.606 159.633 174.606 153.485C174.606 147.337 173.421 143.317 174.369 136.46C175.316 129.602 175.553 116.833 172.948 109.029C170.342 101.226 164.658 87.9838 161.58 85.6192C158.501 83.018 139.317 75.4511 139.317 75.4511L134.817 66.2289Z" fill="#26473B"/>
</svg>
