<svg width="155" height="496" viewBox="0 0 155 496" fill="none" xmlns="http://www.w3.org/2000/svg">
<path fill-rule="evenodd" clip-rule="evenodd" d="M79.9792 0.456505C82.0839 2.32736 82.5516 1.62583 83.9548 1.15812C85.3579 0.690405 96.583 0.222647 100.792 1.62579C104.768 2.79508 110.848 6.06914 115.759 9.57699C120.67 13.0849 122.541 14.7219 121.84 21.2699C121.138 27.584 121.372 30.3902 121.138 32.2611C120.904 34.132 119.501 35.769 119.735 37.6399C119.969 39.5107 119.969 40.4461 120.67 43.954C121.372 46.9941 119.501 47.6957 117.63 47.4618C115.993 47.228 115.292 47.9295 115.292 49.8004C115.292 51.6712 115.292 54.2437 114.59 54.2437C113.655 54.2437 113.421 56.3484 113.421 57.7515C113.421 58.9208 113.187 59.6224 113.187 61.2594C113.187 62.8964 111.55 64.7673 108.977 65.235C106.639 65.4688 104.534 64.5334 102.897 64.0657C101.26 63.598 98.6877 64.5334 98.6877 66.4043C98.6877 68.2751 99.1555 70.146 100.559 72.0168C101.962 73.8877 106.405 77.8633 108.51 77.8633C110.614 77.8633 112.953 79.2664 114.59 80.4357C115.993 81.605 116.227 82.5404 119.033 82.7743C122.073 83.0081 123.71 83.4758 125.581 86.0483C127.452 88.6207 135.169 107.563 136.339 116.216C137.508 124.869 140.782 129.312 143.822 133.755C146.862 138.198 147.096 138.432 147.798 140.303C148.499 141.94 149.435 147.553 149.435 156.673C149.435 165.794 148.499 178.422 149.201 183.099C149.902 188.01 150.136 196.663 150.136 201.808C150.136 228.233 147.798 220.282 149.435 221.218C144.992 218.411 145.693 229.637 146.161 234.08C146.395 238.523 145.927 241.096 147.564 254.659C149.201 268.457 151.072 293.012 151.773 297.689C152.475 302.366 153.644 314.059 154.112 316.865C154.58 319.672 154.112 320.373 149.435 320.373C144.758 320.373 141.25 321.543 138.443 321.543C135.637 321.543 135.403 322.01 135.637 324.816C136.105 327.623 137.274 330.663 135.169 330.663C133.065 330.663 124.88 330.663 124.88 331.364C124.88 332.066 124.178 343.759 124.412 349.372C124.88 354.984 120.904 384.918 114.59 405.731C108.276 426.544 104.066 438.471 104.066 441.979C104.066 445.487 104.534 457.647 106.405 461.155C108.276 464.663 108.744 471.211 111.55 474.719C114.356 478.227 113.421 479.396 113.421 480.565C113.421 481.735 111.55 485.71 108.276 486.412C105.236 487.113 96.583 486.88 94.2445 484.775C91.9059 482.904 88.8657 480.098 88.8657 476.59C88.8657 473.082 88.398 464.195 86.761 461.389C85.124 458.583 81.6162 451.567 84.8902 446.89C87.9303 442.213 91.9059 437.068 92.8413 433.56C93.5429 430.052 93.3091 409.005 93.3091 399.885C93.3091 390.764 94.0106 368.314 96.1153 359.661C97.9862 351.008 97.2846 341.888 97.2846 339.082C97.2846 336.276 96.8169 335.574 94.2445 335.574C91.4382 335.574 85.5918 337.211 80.9146 336.275C76.2375 335.574 74.1328 335.574 73.4312 337.913C72.7296 340.251 68.754 346.098 66.8832 349.138C65.0123 352.412 62.6738 358.96 62.206 362C61.7383 365.04 56.3596 386.555 47.7069 406.199C39.0542 425.843 34.1432 438.237 33.6754 441.745C33.2077 445.253 32.9739 449.93 34.8447 452.035C36.7156 453.906 38.3526 456.712 38.8203 459.051C39.288 461.389 37.1833 466.534 35.3125 470.042C33.4416 473.55 30.8692 477.525 30.8692 480.565C30.8692 483.606 30.1676 491.557 30.1676 491.557L27.1275 492.492C27.1275 492.492 26.4259 486.178 25.4904 488.517C24.7889 490.855 14.2653 496 12.1606 496C10.2897 496 5.14487 496 2.8063 496C0.467725 496 0 492.726 0 491.323C0 489.686 0 488.283 2.33857 486.178C4.67714 484.307 7.48343 480.565 9.35429 475.654C11.2251 470.51 12.3944 461.623 14.4992 457.647C16.37 453.672 16.37 449.696 17.3054 447.358C18.007 445.019 21.281 438.939 21.281 436.366C21.281 434.028 23.6196 409.473 26.4259 395.675C29.2322 382.111 33.4416 356.153 36.9494 349.138C40.4573 342.122 42.0943 339.082 42.3282 335.808C42.7959 332.768 44.199 329.26 44.6667 326.454C45.1345 323.647 43.0297 294.883 44.199 288.101C45.3683 281.553 47.473 264.949 48.1746 259.103C48.8762 253.256 52.8517 213.033 54.021 206.719C55.1903 200.404 55.1903 192.687 57.0612 188.01C58.932 183.333 57.5289 177.954 55.1903 172.809C52.8517 167.664 49.11 151.762 46.5376 144.279C44.199 136.795 37.8849 109.2 39.5219 100.547C41.1589 91.8947 44.199 80.9034 48.8762 79.5003C53.5533 77.8633 58.6982 75.5247 60.569 75.2908C62.4399 74.8231 64.5446 75.7586 64.7784 74.5893C65.2462 73.42 70.1572 68.7429 71.3265 66.6381C72.4957 64.7673 76.0036 63.8318 76.0036 63.8318C76.0036 63.8318 76.0036 57.05 76.0036 54.4775C76.0036 51.6712 72.4957 48.1634 71.3265 46.7603C70.1572 45.1233 64.3107 36.9382 62.6737 35.5351C61.0367 33.8981 60.8029 27.3501 61.9722 24.5438C63.1415 21.7376 66.1816 19.1651 66.6493 17.5281C67.117 15.8911 64.7784 16.1249 64.7784 14.4879C64.7784 12.8509 66.6493 12.851 68.2863 11.6817C69.9233 10.5124 71.3265 9.81079 71.3265 7.47222C71.3265 5.13365 73.4312 3.49669 74.1327 2.32741C74.6004 2.09355 78.1083 -1.1805 79.9792 0.456505Z" fill="#26473B"/>
</svg>
