<svg width="170" height="290" viewBox="0 0 170 290" fill="none" xmlns="http://www.w3.org/2000/svg">
<path d="M55.6942 254.326L31.5204 219.092L54.7115 185.625H36.827L15.7978 215.461V185.625H0.0751953V254.326H15.7978V222.527L37.8097 254.326H55.6942ZM96.966 185.625L84.8793 215.657L71.4167 185.625H55.6942L77.706 232.832C75.0525 237.641 71.122 240.291 63.9486 239.604V254.326C76.8216 255.013 86.7464 248.928 92.839 234.108L112.689 185.625H96.966ZM146.099 211.142H135.29V200.739H163.788V185.625H119.567V254.326H146.099C160.152 254.326 169.683 245.787 169.683 232.734C169.683 219.681 160.152 211.142 146.099 211.142ZM146.099 239.604H135.29V225.864H146.099C150.423 225.864 153.961 227.729 153.961 232.734C153.961 237.74 150.423 239.604 146.099 239.604Z" fill="#1F1D1A"/>
<path d="M2.79152 269L5.98443 265.021V264.985H4.388L1.48101 268.619V264.985H0.0751953V273.087H1.48101V269.465L4.57862 273.087H6.23462V273.039L2.79152 269ZM10.6189 273.241C13.1208 273.241 14.8364 271.395 14.8364 269.024C14.8364 266.593 13.1208 264.83 10.6189 264.83C8.14083 264.83 6.40139 266.593 6.40139 269.024C6.40139 271.395 8.14083 273.241 10.6189 273.241ZM10.6189 271.967C8.92715 271.967 7.84297 270.656 7.84297 269.024C7.84297 267.344 8.92715 266.105 10.6189 266.105C12.3225 266.105 13.4067 267.344 13.4067 269.024C13.4067 270.656 12.3225 271.967 10.6189 271.967ZM16.3732 273.087H17.779V270.132H19.4589C21.2459 270.132 22.1991 268.917 22.1991 267.594C22.1991 266.26 21.2221 264.985 19.4827 264.985H16.3732V273.087ZM17.779 268.929V266.212H19.3397C20.2333 266.212 20.7813 266.82 20.7813 267.582C20.7813 268.273 20.3286 268.929 19.304 268.929H17.779ZM23.4976 273.087H24.9035V266.284H28.561V273.087H29.9788V264.985H23.4976V273.087ZM35.7211 273.241C38.223 273.241 39.9386 271.395 39.9386 269.024C39.9386 266.593 38.223 264.83 35.7211 264.83C33.2431 264.83 31.5037 266.593 31.5037 269.024C31.5037 271.395 33.2431 273.241 35.7211 273.241ZM35.7211 271.967C34.0295 271.967 32.9452 270.656 32.9452 269.024C32.9452 267.344 34.0295 266.105 35.7211 266.105C37.4247 266.105 38.5091 267.344 38.5091 269.024C38.5091 270.656 37.4247 271.967 35.7211 271.967ZM41.4754 273.087H42.8814V270.132H44.5613C46.3483 270.132 47.3015 268.917 47.3015 267.594C47.3015 266.26 46.3244 264.985 44.585 264.985H41.4754V273.087ZM42.8814 268.929V266.212H44.4421C45.3357 266.212 45.8836 266.82 45.8836 267.582C45.8836 268.273 45.4308 268.929 44.4062 268.929H42.8814ZM51.102 264.937H50.6731L46.8487 273.063V273.087H48.326L48.9931 271.621H52.7817L53.4488 273.087H54.9142V273.051L51.102 264.937ZM50.8874 267.201C51.0781 267.725 51.2448 268.154 51.4355 268.583L52.3169 270.513H49.4579L50.3395 268.583C50.5299 268.142 50.6967 267.725 50.8874 267.201ZM62.4079 271.788V264.985H61.0023V271.788H57.3685V264.985H55.9626V273.087H62.1222V274.897H63.4444V271.788H62.4079ZM71.2003 264.937L66.9828 269.429C66.6493 269.774 66.3277 270.144 66.0417 270.489C66.0656 270.108 66.0775 269.727 66.0775 269.346V264.985H64.6716V273.134H65.0886L69.318 268.595C69.616 268.273 69.9376 267.928 70.2472 267.57C70.2236 267.964 70.2116 268.357 70.2116 268.726V273.087H71.6172V264.937H71.2003ZM75.9181 264.985C74.1906 264.985 73.166 266.105 73.166 267.499C73.166 268.547 73.7736 269.512 74.9174 269.846L72.8325 273.039V273.087H74.3932L76.3709 269.977H77.7649V273.087H79.1708V264.985H75.9181ZM77.7649 268.833H76.0493C75.132 268.833 74.572 268.309 74.572 267.511C74.572 266.724 75.132 266.2 76.0493 266.2H77.7649V268.833ZM88.7851 264.985L86.7954 269.512L84.4248 264.985H82.8996L86.0925 270.978C85.6756 271.621 85.1277 271.919 84.0553 271.955L84.1746 273.17C86.1044 273.075 86.7954 272.491 87.713 270.537L90.2744 264.985H88.7851ZM91.3109 273.087H92.7168V266.284H96.3742V273.087H97.7921V264.985H91.3109V273.087ZM99.7578 273.087H101.163V270.132H102.843C104.63 270.132 105.583 268.917 105.583 267.594C105.583 266.26 104.606 264.985 102.867 264.985H99.7578V273.087ZM101.163 268.929V266.212H102.724C103.618 266.212 104.166 266.82 104.166 267.582C104.166 268.273 103.713 268.929 102.689 268.929H101.163ZM109.384 264.937H108.955L105.131 273.063V273.087H106.608L107.275 271.621H111.064L111.731 273.087H113.197V273.051L109.384 264.937ZM109.169 267.201C109.36 267.725 109.527 268.154 109.718 268.583L110.599 270.513H107.74L108.622 268.583C108.812 268.142 108.979 267.725 109.169 267.201ZM118.951 268.845C119.535 268.476 119.916 267.88 119.916 267.106C119.916 265.843 118.891 264.985 117.473 264.985H114.245V273.087H117.7C119.189 273.087 120.237 272.193 120.237 270.846C120.237 269.917 119.725 269.191 118.951 268.845ZM115.639 266.141H117.235C117.986 266.141 118.498 266.546 118.498 267.213C118.498 267.928 118.057 268.345 117.259 268.345H115.639V266.141ZM117.473 271.931H115.639V269.488H117.521C118.296 269.488 118.82 269.965 118.82 270.704C118.82 271.466 118.272 271.931 117.473 271.931ZM121.071 273.182C122.823 273.087 123.716 272.098 124.026 269.393L124.372 266.284H126.838V273.087H128.244V264.985H123.156L122.715 268.941C122.465 271.121 122.072 271.907 120.881 272.002L121.071 273.182ZM131.627 271.847V269.572H134.856V268.368H131.627V266.224H135.32V264.985H130.221V273.087H135.428V271.847H131.627ZM136.905 273.087H138.311V269.655H142.254V273.087H143.66V264.985H142.254V268.357H138.311V264.985H136.905V273.087ZM152.167 264.937L147.949 269.429C147.615 269.774 147.294 270.144 147.008 270.489C147.032 270.108 147.044 269.727 147.044 269.346V264.985H145.638V273.134H146.055L150.284 268.595C150.582 268.273 150.904 267.928 151.213 267.57C151.19 267.964 151.178 268.357 151.178 268.726V273.087H152.584V264.937H152.167ZM156.884 264.985C155.157 264.985 154.132 266.105 154.132 267.499C154.132 268.547 154.74 269.512 155.883 269.846L153.798 273.039V273.087H155.359L157.337 269.977H158.731V273.087H160.137V264.985H156.884ZM158.731 268.833H157.015C156.098 268.833 155.538 268.309 155.538 267.511C155.538 266.724 156.098 266.2 157.015 266.2H158.731V268.833ZM0.0751953 289.003H3.32764C5.04323 289.003 6.05589 287.848 6.05589 286.549C6.05589 285.274 5.04323 284.107 3.32764 284.107H1.48101V282.153H5.35299V280.902H0.0751953V289.003ZM1.48101 287.824V285.274H3.17273C4.09011 285.274 4.65006 285.763 4.65006 286.549C4.65006 287.347 4.09011 287.824 3.17273 287.824H1.48101ZM14.0143 280.854L9.79682 285.346C9.46321 285.691 9.14156 286.061 8.85562 286.406C8.87947 286.025 8.89137 285.644 8.89137 285.262V280.902H7.48554V289.051H7.90256L12.1319 284.512C12.4298 284.19 12.7514 283.844 13.0612 283.487C13.0373 283.88 13.0255 284.274 13.0255 284.643V289.003H14.4313V280.854H14.0143ZM18.7679 289.134C20.5073 289.134 21.6391 288.05 21.6391 286.74C21.6391 285.763 21.0792 285.048 20.1856 284.726C20.8051 284.464 21.2817 283.797 21.2817 282.987C21.2817 281.712 20.1141 280.759 18.5654 280.759C17.7076 280.759 16.8498 281.021 16.0039 281.7L16.6115 282.677C17.1833 282.224 17.8029 282.022 18.4343 282.022C19.2921 282.022 19.864 282.439 19.864 283.142C19.864 283.785 19.447 284.25 18.7083 284.25H17.6718V285.405H18.756C19.6376 285.405 20.2333 285.834 20.2333 286.609C20.2333 287.395 19.5423 287.883 18.6845 287.883C17.6956 287.883 16.9093 287.514 16.3732 287.038L15.7179 288.038C16.54 288.801 17.5169 289.134 18.7679 289.134ZM23.1521 289.003H24.558V285.572H28.5014V289.003H29.9073V280.902H28.5014V284.274H24.558V280.902H23.1521V289.003ZM33.2907 287.764V285.489H36.5194V284.285H33.2907V282.141H36.9839V280.902H31.885V289.003H37.0912V287.764H33.2907ZM42.2976 289.158C43.6797 289.158 44.7756 288.61 45.562 287.645L44.6803 286.74C44.1441 287.443 43.3581 287.883 42.3216 287.883C40.6774 287.883 39.5695 286.597 39.5695 284.941C39.5695 283.237 40.713 282.022 42.3691 282.022C43.3581 282.022 44.0727 282.355 44.6564 282.892L45.3833 281.938C44.478 281.116 43.5604 280.747 42.3332 280.747C39.8791 280.747 38.1277 282.51 38.1277 284.941C38.1277 287.276 39.7957 289.158 42.2976 289.158ZM50.2678 289.158C52.7697 289.158 54.4853 287.311 54.4853 284.941C54.4853 282.51 52.7697 280.747 50.2678 280.747C47.7898 280.747 46.0504 282.51 46.0504 284.941C46.0504 287.311 47.7898 289.158 50.2678 289.158ZM50.2678 287.883C48.5762 287.883 47.4921 286.573 47.4921 284.941C47.4921 283.261 48.5762 282.022 50.2678 282.022C51.9717 282.022 53.0557 283.261 53.0557 284.941C53.0557 286.573 51.9717 287.883 50.2678 287.883ZM63.4328 280.842H63.0155L60.5615 284.583C60.3827 284.857 60.204 285.143 60.0372 285.429C59.8705 285.143 59.6917 284.857 59.513 284.583L57.0706 280.842H56.6536L55.4623 289.003H56.8443L57.4639 284.631C57.4995 284.345 57.5473 284.083 57.5592 283.773C57.7141 284.047 57.8808 284.309 58.0596 284.559L59.8944 287.371H60.1801L62.0269 284.559C62.1936 284.309 62.3604 284.059 62.5033 283.797C62.5272 284.071 62.563 284.333 62.5986 284.619L63.2421 289.003H64.6241L63.4328 280.842Z" fill="#1F1D1A"/>
<path fill-rule="evenodd" clip-rule="evenodd" d="M75.0969 0.259766L1.4563 47.3898L67.4289 76.5812L145.104 20.6786L75.0969 0.259766Z" fill="#0A4135"/>
<path fill-rule="evenodd" clip-rule="evenodd" d="M75.0969 0.259766L1.4563 47.3898L3.51823 48.302L142.086 22.8509L145.104 20.6785L75.0969 0.259766Z" fill="#122921" fill-opacity="0.6"/>
<path fill-rule="evenodd" clip-rule="evenodd" d="M0.0751953 52.9038L30.4388 130.564L92.3202 164.108L65.4828 81.845L0.0751953 52.9038Z" fill="#034532"/>
<path fill-rule="evenodd" clip-rule="evenodd" d="M2.66357 54.0493L91.0552 160.231L65.4826 81.8455L2.66357 54.0493Z" fill="black" fill-opacity="0.521569"/>
<path fill-rule="evenodd" clip-rule="evenodd" d="M98.2067 164.102L165.637 107.318L149.11 24.6812L71.0498 80.8607L98.2067 164.102Z" fill="#84AE8A"/>
<path fill-rule="evenodd" clip-rule="evenodd" d="M105.474 49.2007H5.54883L67.429 76.5815L105.474 49.2007Z" fill="#2C6E54"/>
<path fill-rule="evenodd" clip-rule="evenodd" d="M165.638 107.318L115.94 48.5533L130.998 37.716L136.789 33.5482L149.11 24.6805L165.638 107.318ZM112.32 44.2734L75.0974 0.259766L145.105 20.6785L138.366 25.5286L134.218 28.5133L112.32 44.2734Z" fill="#034532" fill-opacity="0.439216"/>
<path fill-rule="evenodd" clip-rule="evenodd" d="M97.6744 162.471L153.979 49.2007H115.04L71.0498 80.8605L97.6744 162.471Z" fill="#FEFEFE" fill-opacity="0.65098"/>
</svg>
