<svg width="1230" height="1216" viewBox="0 0 1230 1216" fill="none" xmlns="http://www.w3.org/2000/svg">
<g style="mix-blend-mode:luminosity" opacity="0.05">
<path fill-rule="evenodd" clip-rule="evenodd" d="M557.674 0L25.2941 348.095L0 392.66L513.125 679.327L1104.51 181.745L1097.28 157.787L557.674 0Z" fill="white"/>
<path fill-rule="evenodd" clip-rule="evenodd" d="M557.712 0L11.4507 349.608L500.832 566.148L1077.02 151.466L557.712 0Z" fill="#0A4135"/>
<path fill-rule="evenodd" clip-rule="evenodd" d="M557.712 0L11.4507 349.608L26.746 356.374L1054.63 167.579L1077.02 151.465L557.712 0Z" fill="#122921" fill-opacity="0.6"/>
<path fill-rule="evenodd" clip-rule="evenodd" d="M1.20459 390.512L226.44 966.595L685.473 1215.42L486.394 605.197L1.20459 390.512Z" fill="#034532"/>
<path fill-rule="evenodd" clip-rule="evenodd" d="M20.4058 399.005L676.09 1186.65L486.394 605.196L20.4058 399.005Z" fill="black" fill-opacity="0.521569"/>
<path fill-rule="evenodd" clip-rule="evenodd" d="M729.139 1215.37L1229.34 794.149L1106.74 181.152L527.69 597.888L729.139 1215.37Z" fill="#84AE8A"/>
<path fill-rule="evenodd" clip-rule="evenodd" d="M783.048 363.038H41.8086L500.832 566.147L783.048 363.038Z" fill="#2C6E54"/>
<path fill-rule="evenodd" clip-rule="evenodd" d="M1229.34 794.15L860.683 358.239L972.383 277.848L1015.34 246.931L1106.74 181.152L1229.34 794.15ZM833.832 326.49L557.715 0L1077.03 151.465L1027.04 187.443L996.271 209.583L833.832 326.49Z" fill="#034532" fill-opacity="0.439216"/>
<path fill-rule="evenodd" clip-rule="evenodd" d="M725.19 1203.27L1142.85 363.038H854.01L527.69 597.888L725.19 1203.27Z" fill="#FEFEFE" fill-opacity="0.65098"/>
</g>
</svg>
