<svg width="66" height="65" viewBox="0 0 66 65" fill="none" xmlns="http://www.w3.org/2000/svg">
<path fill-rule="evenodd" clip-rule="evenodd" d="M29.4622 0L0.541992 18.509L26.4508 29.973L56.9556 8.01892L29.4622 0Z" fill="#0A4135"/>
<path fill-rule="evenodd" clip-rule="evenodd" d="M29.4622 0L0.541992 18.509L1.35176 18.8672L55.7702 8.872L56.9557 8.01889L29.4622 0Z" fill="#122921" fill-opacity="0.6"/>
<path fill-rule="evenodd" clip-rule="evenodd" d="M0 20.6743L11.9244 51.1733L36.2266 64.3464L25.687 32.0401L0 20.6743Z" fill="#034532"/>
<path fill-rule="evenodd" clip-rule="evenodd" d="M1.0166 21.1239L35.7299 62.8236L25.687 32.0401L1.0166 21.1239Z" fill="black" fill-opacity="0.521569"/>
<path fill-rule="evenodd" clip-rule="evenodd" d="M38.5386 64.3442L65.0201 42.0439L58.5295 9.59058L27.8735 31.6535L38.5386 64.3442Z" fill="#84AE8A"/>
<path fill-rule="evenodd" clip-rule="evenodd" d="M41.3927 19.2201H2.1499L26.4516 29.9731L41.3927 19.2201Z" fill="#2C6E54"/>
<path fill-rule="evenodd" clip-rule="evenodd" d="M65.02 42.0439L45.5026 18.9659L51.4162 14.7099L53.6905 13.0731L58.5293 9.59056L65.02 42.0439ZM44.0811 17.2851L29.4629 0L56.9563 8.01889L54.3097 9.92363L52.681 11.0958L44.0811 17.2851Z" fill="#034532" fill-opacity="0.439216"/>
<path fill-rule="evenodd" clip-rule="evenodd" d="M38.3296 63.7037L60.4415 19.2201H45.1496L27.8735 31.6536L38.3296 63.7037Z" fill="#FEFEFE" fill-opacity="0.65098"/>
</svg>
