<svg width="93" height="40" viewBox="0 0 93 40" fill="none" xmlns="http://www.w3.org/2000/svg">
<path d="M61.6748 24.808L55.133 15.2732L61.4089 6.21643H56.5691L50.8783 14.2905V6.21643H46.6235V24.808H50.8783V16.2027L56.835 24.808H61.6748ZM72.8435 6.21643L69.5727 14.3435L65.9295 6.21643H61.6748L67.6315 18.9915C66.9134 20.2929 65.8498 21.0099 63.9086 20.8241V24.808C67.3922 24.9939 70.078 23.3472 71.7267 19.3368L77.0983 6.21643H72.8435ZM86.1397 13.1218H83.2146V10.3066H90.9263V6.21643H78.9598V24.808H86.1397C89.9424 24.808 92.5219 22.4973 92.5219 18.9649C92.5219 15.4325 89.9424 13.1218 86.1397 13.1218ZM86.1397 20.8241H83.2146V17.1058H86.1397C87.3098 17.1058 88.2671 17.6104 88.2671 18.9649C88.2671 20.3195 87.3098 20.8241 86.1397 20.8241Z" fill="#1F1D1A"/>
<path d="M47.3581 28.779L48.2222 27.7021V27.6925H47.7902L47.0035 28.6758V27.6925H46.623V29.8848H47.0035V28.9047L47.8417 29.8848H48.2899V29.8719L47.3581 28.779ZM49.4763 29.9267C50.1534 29.9267 50.6176 29.427 50.6176 28.7854C50.6176 28.1277 50.1534 27.6505 49.4763 27.6505C48.8057 27.6505 48.335 28.1277 48.335 28.7854C48.335 29.427 48.8057 29.9267 49.4763 29.9267ZM49.4763 29.5818C49.0185 29.5818 48.7251 29.2271 48.7251 28.7854C48.7251 28.3308 49.0185 27.9955 49.4763 27.9955C49.9373 27.9955 50.2307 28.3308 50.2307 28.7854C50.2307 29.2271 49.9373 29.5818 49.4763 29.5818ZM51.0335 29.8848H51.4139V29.0852H51.8685C52.3521 29.0852 52.6101 28.7564 52.6101 28.3985C52.6101 28.0374 52.3457 27.6925 51.875 27.6925H51.0335V29.8848ZM51.4139 28.7596V28.0245H51.8363C52.0781 28.0245 52.2264 28.1889 52.2264 28.3953C52.2264 28.5823 52.1039 28.7596 51.8266 28.7596H51.4139ZM52.9615 29.8848H53.3419V28.0438H54.3317V29.8848H54.7154V27.6925H52.9615V29.8848ZM56.2693 29.9267C56.9464 29.9267 57.4106 29.427 57.4106 28.7854C57.4106 28.1277 56.9464 27.6505 56.2693 27.6505C55.5988 27.6505 55.128 28.1277 55.128 28.7854C55.128 29.427 55.5988 29.9267 56.2693 29.9267ZM56.2693 29.5818C55.8115 29.5818 55.5181 29.2271 55.5181 28.7854C55.5181 28.3308 55.8115 27.9955 56.2693 27.9955C56.7303 27.9955 57.0238 28.3308 57.0238 28.7854C57.0238 29.2271 56.7303 29.5818 56.2693 29.5818ZM57.8265 29.8848H58.207V29.0852H58.6616C59.1452 29.0852 59.4031 28.7564 59.4031 28.3985C59.4031 28.0374 59.1387 27.6925 58.668 27.6925H57.8265V29.8848ZM58.207 28.7596V28.0245H58.6293C58.8712 28.0245 59.0194 28.1889 59.0194 28.3953C59.0194 28.5823 58.8969 28.7596 58.6196 28.7596H58.207ZM60.4316 27.6795H60.3155L59.2806 29.8784V29.8848H59.6804L59.8609 29.4882H60.8861L61.0667 29.8848H61.4632V29.8751L60.4316 27.6795ZM60.3735 28.2921C60.4251 28.434 60.4703 28.5501 60.5219 28.6661L60.7604 29.1884H59.9867L60.2253 28.6661C60.2768 28.5468 60.3219 28.434 60.3735 28.2921ZM63.4911 29.5334V27.6925H63.1108V29.5334H62.1274V27.6925H61.747V29.8848H63.4138V30.3749H63.7716V29.5334H63.4911ZM65.8705 27.6795L64.7292 28.895C64.6389 28.9885 64.5519 29.0885 64.4745 29.182C64.481 29.0788 64.4842 28.9757 64.4842 28.8725V27.6925H64.1037V29.8977H64.2166L65.3611 28.6694C65.4417 28.5823 65.5288 28.4888 65.6126 28.3921C65.6062 28.4985 65.6029 28.6048 65.6029 28.7048V29.8848H65.9833V27.6795H65.8705ZM67.1472 27.6925C66.6797 27.6925 66.4024 27.9955 66.4024 28.3727C66.4024 28.6564 66.5669 28.9176 66.8764 29.0078L66.3122 29.8719V29.8848H66.7345L67.2697 29.0433H67.6469V29.8848H68.0274V27.6925H67.1472ZM67.6469 28.7338H67.1827C66.9345 28.7338 66.7829 28.592 66.7829 28.3759C66.7829 28.1631 66.9345 28.0213 67.1827 28.0213H67.6469V28.7338ZM70.6292 27.6925L70.0907 28.9176L69.4492 27.6925H69.0365L69.9005 29.3141C69.7877 29.4883 69.6394 29.5688 69.3492 29.5785L69.3815 29.9074C69.9037 29.8816 70.0907 29.7236 70.339 29.1948L71.0322 27.6925H70.6292ZM71.3127 29.8848H71.6931V28.0438H72.6829V29.8848H73.0666V27.6925H71.3127V29.8848ZM73.5985 29.8848H73.9789V29.0852H74.4335C74.9171 29.0852 75.175 28.7564 75.175 28.3985C75.175 28.0374 74.9107 27.6925 74.44 27.6925H73.5985V29.8848ZM73.9789 28.7596V28.0245H74.4013C74.6431 28.0245 74.7914 28.1889 74.7914 28.3953C74.7914 28.5823 74.6689 28.7596 74.3916 28.7596H73.9789ZM76.2035 27.6795H76.0875L75.0525 29.8784V29.8848H75.4523L75.6328 29.4882H76.6581L76.8387 29.8848H77.2352V29.8751L76.2035 27.6795ZM76.1455 28.2921C76.1971 28.434 76.2422 28.5501 76.2938 28.6661L76.5324 29.1884H75.7586L75.9972 28.6661C76.0488 28.5468 76.0939 28.434 76.1455 28.2921ZM78.7924 28.7371C78.9504 28.6371 79.0536 28.4759 79.0536 28.2663C79.0536 27.9246 78.7763 27.6925 78.3926 27.6925H77.519V29.8848H78.4539C78.8569 29.8848 79.1406 29.643 79.1406 29.2786C79.1406 29.0272 79.002 28.8306 78.7924 28.7371ZM77.8961 28.0052H78.3282C78.5313 28.0052 78.6699 28.1148 78.6699 28.2954C78.6699 28.4888 78.5506 28.6017 78.3346 28.6017H77.8961V28.0052ZM78.3926 29.5721H77.8961V28.9111H78.4056C78.6151 28.9111 78.757 29.0401 78.757 29.24C78.757 29.4463 78.6087 29.5721 78.3926 29.5721ZM79.3663 29.9106C79.8402 29.8848 80.0821 29.6172 80.1659 28.8853L80.2594 28.0438H80.9267V29.8848H81.3072V27.6925H79.9305L79.8112 28.7629C79.7435 29.3528 79.6371 29.5656 79.3148 29.5914L79.3663 29.9106ZM82.2228 29.5495V28.9337H83.0965V28.6081H82.2228V28.0277H83.2222V27.6925H81.8423V29.8848H83.2513V29.5495H82.2228ZM83.6511 29.8848H84.0315V28.9562H85.0986V29.8848H85.4791V27.6925H85.0986V28.6048H84.0315V27.6925H83.6511V29.8848ZM87.7811 27.6795L86.6397 28.895C86.5494 28.9885 86.4624 29.0885 86.385 29.182C86.3915 29.0788 86.3947 28.9757 86.3947 28.8725V27.6925H86.0142V29.8977H86.1271L87.2716 28.6694C87.3522 28.5823 87.4393 28.4888 87.5231 28.3921C87.5167 28.4985 87.5134 28.6048 87.5134 28.7048V29.8848H87.8939V27.6795H87.7811ZM89.0578 27.6925C88.5903 27.6925 88.313 27.9955 88.313 28.3727C88.313 28.6564 88.4775 28.9176 88.7869 29.0078L88.2227 29.8719V29.8848H88.645L89.1802 29.0433H89.5574V29.8848H89.9379V27.6925H89.0578ZM89.5574 28.7338H89.0932C88.845 28.7338 88.6934 28.592 88.6934 28.3759C88.6934 28.1631 88.845 28.0213 89.0932 28.0213H89.5574V28.7338ZM46.623 34.1921H47.5032C47.9675 34.1921 48.2415 33.8794 48.2415 33.5279C48.2415 33.183 47.9675 32.8671 47.5032 32.8671H47.0035V32.3383H48.0513V31.9998H46.623V34.1921ZM47.0035 33.8729V33.183H47.4613C47.7095 33.183 47.8611 33.3151 47.8611 33.5279C47.8611 33.744 47.7095 33.8729 47.4613 33.8729H47.0035ZM50.3952 31.9868L49.2539 33.2023C49.1636 33.2958 49.0765 33.3958 48.9992 33.4893C49.0056 33.3861 49.0088 33.2829 49.0088 33.1797V31.9998H48.6284V34.205H48.7412L49.8858 32.9766C49.9664 32.8896 50.0534 32.796 50.1372 32.6994C50.1308 32.8057 50.1276 32.9122 50.1276 33.0121V34.1921H50.508V31.9868H50.3952ZM51.6815 34.2275C52.1523 34.2275 52.4585 33.9342 52.4585 33.5795C52.4585 33.3151 52.307 33.1217 52.0652 33.0346C52.2329 32.9637 52.3618 32.7832 52.3618 32.5639C52.3618 32.219 52.0459 31.961 51.6267 31.961C51.3946 31.961 51.1625 32.032 50.9336 32.2157L51.098 32.4801C51.2527 32.3576 51.4204 32.3028 51.5913 32.3028C51.8234 32.3028 51.9782 32.4157 51.9782 32.6059C51.9782 32.7799 51.8653 32.9057 51.6654 32.9057H51.3849V33.2184H51.6783C51.9169 33.2184 52.0781 33.3345 52.0781 33.5441C52.0781 33.7568 51.8911 33.8891 51.659 33.8891C51.3914 33.8891 51.1786 33.7891 51.0335 33.6602L50.8562 33.931C51.0786 34.1373 51.343 34.2275 51.6815 34.2275ZM52.868 34.1921H53.2484V33.2635H54.3156V34.1921H54.696V31.9998H54.3156V32.9122H53.2484V31.9998H52.868V34.1921ZM55.6116 33.8568V33.241H56.4854V32.9153H55.6116V32.335H56.6111V31.9998H55.2312V34.1921H56.6401V33.8568H55.6116ZM58.049 34.234C58.423 34.234 58.7196 34.0857 58.9324 33.8245L58.6938 33.5795C58.5487 33.7698 58.336 33.8891 58.0555 33.8891C57.6106 33.8891 57.3107 33.5409 57.3107 33.0927C57.3107 32.6317 57.6202 32.3028 58.0684 32.3028C58.336 32.3028 58.5294 32.3931 58.6873 32.5382L58.884 32.2803C58.639 32.0578 58.3907 31.9579 58.0586 31.9579C57.3945 31.9579 56.9206 32.435 56.9206 33.0927C56.9206 33.7246 57.372 34.234 58.049 34.234ZM60.2059 34.234C60.8829 34.234 61.3472 33.7343 61.3472 33.0927C61.3472 32.435 60.8829 31.9579 60.2059 31.9579C59.5353 31.9579 59.0646 32.435 59.0646 33.0927C59.0646 33.7343 59.5353 34.234 60.2059 34.234ZM60.2059 33.8891C59.7481 33.8891 59.4547 33.5344 59.4547 33.0927C59.4547 32.6381 59.7481 32.3028 60.2059 32.3028C60.667 32.3028 60.9603 32.6381 60.9603 33.0927C60.9603 33.5344 60.667 33.8891 60.2059 33.8891ZM63.7685 31.9837H63.6556L62.9915 32.996C62.9431 33.0701 62.8947 33.1475 62.8496 33.2249C62.8045 33.1475 62.7561 33.0701 62.7077 32.996L62.0468 31.9837H61.934L61.6116 34.1921H61.9856L62.1532 33.0088C62.1628 32.9315 62.1758 32.8606 62.179 32.7767C62.2209 32.8509 62.266 32.9218 62.3144 32.9895L62.8109 33.7504H62.8883L63.388 32.9895C63.4332 32.9218 63.4783 32.8541 63.5169 32.7832C63.5234 32.8574 63.5331 32.9283 63.5427 33.0057L63.7169 34.1921H64.0909L63.7685 31.9837Z" fill="#808080"/>
<path fill-rule="evenodd" clip-rule="evenodd" d="M18.315 0L0.337158 11.5058L16.443 18.6323L35.4059 4.98485L18.315 0Z" fill="#0A4135"/>
<path fill-rule="evenodd" clip-rule="evenodd" d="M18.315 0L0.337158 11.5058L0.840538 11.7285L34.669 5.51516L35.406 4.98483L18.315 0Z" fill="#122921" fill-opacity="0.6"/>
<path fill-rule="evenodd" clip-rule="evenodd" d="M0 12.8518L7.41265 31.8111L22.5198 39.9999L15.9679 19.9172L0 12.8518Z" fill="#034532"/>
<path fill-rule="evenodd" clip-rule="evenodd" d="M0.63208 13.1313L22.2111 39.0534L15.9681 19.9172L0.63208 13.1313Z" fill="black" fill-opacity="0.521569"/>
<path fill-rule="evenodd" clip-rule="evenodd" d="M23.9567 39.9986L40.4186 26.136L36.3837 5.96179L17.3269 19.6769L23.9567 39.9986Z" fill="#84AE8A"/>
<path fill-rule="evenodd" clip-rule="evenodd" d="M25.7309 11.9479H1.33618L16.443 18.6323L25.7309 11.9479Z" fill="#2C6E54"/>
<path fill-rule="evenodd" clip-rule="evenodd" d="M40.419 26.136L28.2863 11.7899L31.9624 9.14419L33.3762 8.12669L36.3842 5.96184L40.419 26.136ZM27.4026 10.745L18.3154 0L35.4063 4.98483L33.7611 6.16889L32.7486 6.89754L27.4026 10.745Z" fill="#034532" fill-opacity="0.439216"/>
<path fill-rule="evenodd" clip-rule="evenodd" d="M23.8268 39.6005L37.5723 11.9479H28.0663L17.3269 19.677L23.8268 39.6005Z" fill="#FEFEFE" fill-opacity="0.65098"/>
</svg>
