<svg width="82" height="138" viewBox="0 0 82 138" fill="none" xmlns="http://www.w3.org/2000/svg">
<path d="M27.1231 120.804L15.6289 104.051L26.6558 88.1377H18.1521L8.15307 102.324V88.1377H0.677246V120.804H8.15307V105.684L18.6193 120.804H27.1231ZM46.747 88.1377L41.0001 102.417L34.5988 88.1377H27.1231L37.5893 110.584C36.3276 112.871 34.4587 114.131 31.0479 113.804V120.804C37.1688 121.131 41.8878 118.237 44.7848 111.191L54.2229 88.1377H46.747ZM70.1091 100.271H64.9695V95.3242H78.5195V88.1377H57.4936V120.804H70.1091C76.7907 120.804 81.3229 116.744 81.3229 110.537C81.3229 104.331 76.7907 100.271 70.1091 100.271ZM70.1091 113.804H64.9695V107.271H70.1091C72.165 107.271 73.847 108.157 73.847 110.537C73.847 112.917 72.165 113.804 70.1091 113.804Z" fill="#1F1D1A"/>
<path d="M1.96881 127.781L3.48698 125.889V125.872H2.72791L1.34569 127.6V125.872H0.677246V129.724H1.34569V128.002L2.81854 129.724H3.60594V129.701L1.96881 127.781ZM5.69058 129.798C6.88019 129.798 7.69592 128.92 7.69592 127.792C7.69592 126.637 6.88019 125.798 5.69058 125.798C4.51231 125.798 3.68524 126.637 3.68524 127.792C3.68524 128.92 4.51231 129.798 5.69058 129.798ZM5.69058 129.192C4.88619 129.192 4.37068 128.569 4.37068 127.792C4.37068 126.994 4.88619 126.405 5.69058 126.405C6.50064 126.405 7.01613 126.994 7.01613 127.792C7.01613 128.569 6.50064 129.192 5.69058 129.192ZM8.42665 129.724H9.0951V128.319H9.89383C10.7435 128.319 11.1967 127.741 11.1967 127.113C11.1967 126.478 10.7322 125.872 9.90516 125.872H8.42665V129.724ZM9.0951 127.747V126.455H9.83719C10.262 126.455 10.5226 126.744 10.5226 127.107C10.5226 127.435 10.3074 127.747 9.82019 127.747H9.0951ZM11.8142 129.724H12.4827V126.489H14.2217V129.724H14.8959V125.872H11.8142V129.724ZM17.6262 129.798C18.8159 129.798 19.6316 128.92 19.6316 127.792C19.6316 126.637 18.8159 125.798 17.6262 125.798C16.448 125.798 15.6209 126.637 15.6209 127.792C15.6209 128.92 16.448 129.798 17.6262 129.798ZM17.6262 129.192C16.8219 129.192 16.3063 128.569 16.3063 127.792C16.3063 126.994 16.8219 126.405 17.6262 126.405C18.4363 126.405 18.9519 126.994 18.9519 127.792C18.9519 128.569 18.4363 129.192 17.6262 129.192ZM20.3623 129.724H21.0308V128.319H21.8296C22.6793 128.319 23.1325 127.741 23.1325 127.113C23.1325 126.478 22.6679 125.872 21.8408 125.872H20.3623V129.724ZM21.0308 127.747V126.455H21.7729C22.1978 126.455 22.4583 126.744 22.4583 127.107C22.4583 127.435 22.243 127.747 21.7558 127.747H21.0308ZM24.9396 125.849H24.7356L22.9172 129.713V129.724H23.6196L23.9368 129.027H25.7382L26.0554 129.724H26.7522V129.707L24.9396 125.849ZM24.8375 126.926C24.9282 127.175 25.0075 127.379 25.0982 127.583L25.5172 128.5H24.1578L24.577 127.583C24.6676 127.373 24.7468 127.175 24.8375 126.926ZM30.3153 129.107V125.872H29.647V129.107H27.9192V125.872H27.2507V129.724H30.1795V130.585H30.8082V129.107H30.3153ZM34.4959 125.849L32.4906 127.985C32.332 128.149 32.1791 128.325 32.0431 128.489C32.0545 128.308 32.0602 128.127 32.0602 127.945V125.872H31.3917V129.747H31.5899L33.6009 127.589C33.7426 127.435 33.8955 127.271 34.0428 127.101C34.0315 127.288 34.0258 127.475 34.0258 127.651V129.724H34.6942V125.849H34.4959ZM36.7392 125.872C35.9178 125.872 35.4306 126.405 35.4306 127.067C35.4306 127.566 35.7195 128.025 36.2634 128.183L35.272 129.701V129.724H36.0141L36.9545 128.245H37.6173V129.724H38.2858V125.872H36.7392ZM37.6173 127.702H36.8015C36.3654 127.702 36.0991 127.453 36.0991 127.073C36.0991 126.699 36.3654 126.45 36.8015 126.45H37.6173V127.702ZM42.8572 125.872L41.9111 128.025L40.7839 125.872H40.0587L41.5769 128.721C41.3787 129.027 41.1182 129.169 40.6083 129.186L40.665 129.764C41.5826 129.718 41.9111 129.441 42.3474 128.512L43.5653 125.872H42.8572ZM44.0582 129.724H44.7266V126.489H46.4657V129.724H47.1398V125.872H44.0582V129.724ZM48.0745 129.724H48.7428V128.319H49.5416C50.3913 128.319 50.8445 127.741 50.8445 127.113C50.8445 126.478 50.38 125.872 49.553 125.872H48.0745V129.724ZM48.7428 127.747V126.455H49.4849C49.9099 126.455 50.1703 126.744 50.1703 127.107C50.1703 127.435 49.9552 127.747 49.468 127.747H48.7428ZM52.6516 125.849H52.4477L50.6292 129.713V129.724H51.3317L51.6489 129.027H53.4503L53.7676 129.724H54.4644V129.707L52.6516 125.849ZM52.5496 126.926C52.6402 127.175 52.7195 127.379 52.8102 127.583L53.2294 128.5H51.8698L52.2891 127.583C52.3797 127.373 52.459 127.175 52.5496 126.926ZM57.2004 127.707C57.478 127.532 57.6593 127.249 57.6593 126.88C57.6593 126.28 57.1721 125.872 56.498 125.872H54.9629V129.724H56.6057C57.3137 129.724 57.8122 129.299 57.8122 128.659C57.8122 128.217 57.5686 127.872 57.2004 127.707ZM55.6256 126.421H56.3847C56.7416 126.421 56.9851 126.614 56.9851 126.931C56.9851 127.271 56.7755 127.47 56.3961 127.47H55.6256V126.421ZM56.498 129.175H55.6256V128.013H56.5207C56.8889 128.013 57.1382 128.24 57.1382 128.591C57.1382 128.954 56.8776 129.175 56.498 129.175ZM58.2087 129.769C59.0415 129.724 59.4664 129.254 59.6136 127.968L59.7779 126.489H60.9505V129.724H61.6189V125.872H59.2001L58.9905 127.753C58.8715 128.789 58.6846 129.163 58.1182 129.209L58.2087 129.769ZM63.2278 129.135V128.053H64.7629V127.481H63.2278V126.461H64.9838V125.872H62.5593V129.724H65.0349V129.135H63.2278ZM65.7373 129.724H66.4057V128.093H68.2807V129.724H68.9492V125.872H68.2807V127.475H66.4057V125.872H65.7373V129.724ZM72.9939 125.849L70.9884 127.985C70.8299 128.149 70.6769 128.325 70.5409 128.489C70.5523 128.308 70.558 128.127 70.558 127.945V125.872H69.8895V129.747H70.0878L72.0988 127.589C72.2404 127.435 72.3934 127.271 72.5407 127.101C72.5294 127.288 72.5237 127.475 72.5237 127.651V129.724H73.1922V125.849H72.9939ZM75.2371 125.872C74.4157 125.872 73.9286 126.405 73.9286 127.067C73.9286 127.566 74.2175 128.025 74.7612 128.183L73.7698 129.701V129.724H74.5119L75.4523 128.245H76.1151V129.724H76.7836V125.872H75.2371ZM76.1151 127.702H75.2994C74.8633 127.702 74.5969 127.453 74.5969 127.073C74.5969 126.699 74.8633 126.45 75.2994 126.45H76.1151V127.702ZM0.677246 137.292H2.22373C3.03946 137.292 3.52096 136.743 3.52096 136.125C3.52096 135.519 3.03946 134.964 2.22373 134.964H1.34569V134.035H3.18674V133.44H0.677246V137.292ZM1.34569 136.731V135.519H2.15007C2.58626 135.519 2.85251 135.751 2.85251 136.125C2.85251 136.505 2.58626 136.731 2.15007 136.731H1.34569ZM7.30503 133.417L5.2997 135.553C5.14108 135.717 4.98814 135.893 4.85218 136.057C4.86352 135.876 4.86918 135.695 4.86918 135.513V133.44H4.20073V137.315H4.39902L6.41 135.157C6.55163 135.004 6.70457 134.839 6.85185 134.669C6.84051 134.856 6.83487 135.043 6.83487 135.219V137.292H7.5033V133.417H7.30503ZM9.56527 137.355C10.3923 137.355 10.9305 136.839 10.9305 136.216C10.9305 135.751 10.6643 135.412 10.2394 135.259C10.534 135.134 10.7606 134.817 10.7606 134.431C10.7606 133.825 10.2054 133.372 9.46898 133.372C9.06112 133.372 8.65325 133.497 8.25106 133.82L8.53996 134.284C8.81186 134.069 9.10644 133.973 9.40668 133.973C9.81452 133.973 10.0865 134.171 10.0865 134.505C10.0865 134.811 9.88818 135.032 9.53695 135.032H9.04411V135.581H9.55962C9.9788 135.581 10.262 135.785 10.262 136.154C10.262 136.527 9.93348 136.76 9.52564 136.76C9.05545 136.76 8.68157 136.584 8.42665 136.358L8.11509 136.833C8.50595 137.196 8.97047 137.355 9.56527 137.355ZM11.6499 137.292H12.3184V135.661H14.1934V137.292H14.8619V133.44H14.1934V135.043H12.3184V133.44H11.6499V137.292ZM16.4706 136.703V135.621H18.0058V135.049H16.4706V134.029H18.2267V133.44H15.8022V137.292H18.2777V136.703H16.4706ZM20.7533 137.366C21.4104 137.366 21.9315 137.105 22.3054 136.646L21.8862 136.216C21.6312 136.55 21.2575 136.76 20.7646 136.76C19.9829 136.76 19.4561 136.148 19.4561 135.361C19.4561 134.551 19.9998 133.973 20.7872 133.973C21.2575 133.973 21.5972 134.131 21.8748 134.386L22.2204 133.933C21.7899 133.542 21.3537 133.367 20.7702 133.367C19.6033 133.367 18.7705 134.205 18.7705 135.361C18.7705 136.471 19.5636 137.366 20.7533 137.366ZM24.5429 137.366C25.7325 137.366 26.5482 136.488 26.5482 135.361C26.5482 134.205 25.7325 133.367 24.5429 133.367C23.3647 133.367 22.5376 134.205 22.5376 135.361C22.5376 136.488 23.3647 137.366 24.5429 137.366ZM24.5429 136.76C23.7386 136.76 23.2231 136.137 23.2231 135.361C23.2231 134.562 23.7386 133.973 24.5429 133.973C25.3531 133.973 25.8685 134.562 25.8685 135.361C25.8685 136.137 25.3531 136.76 24.5429 136.76ZM30.8026 133.412H30.6042L29.4374 135.191C29.3524 135.321 29.2674 135.457 29.1881 135.593C29.1088 135.457 29.0238 135.321 28.9388 135.191L27.7775 133.412H27.5793L27.0128 137.292H27.6699L27.9645 135.213C27.9814 135.077 28.0042 134.953 28.0099 134.805C28.0835 134.936 28.1628 135.06 28.2478 135.179L29.1202 136.516H29.256L30.1341 135.179C30.2134 135.06 30.2927 134.941 30.3607 134.817C30.372 134.947 30.3891 135.072 30.406 135.208L30.712 137.292H31.3691L30.8026 133.412Z" fill="#1F1D1A"/>
<path fill-rule="evenodd" clip-rule="evenodd" d="M36.3487 0L1.33398 22.4095L32.7028 36.2894L69.636 9.70879L36.3487 0Z" fill="#0A4135"/>
<path fill-rule="evenodd" clip-rule="evenodd" d="M36.3487 0L1.33398 22.4095L2.3144 22.8432L68.2008 10.7417L69.6361 9.70876L36.3487 0Z" fill="#122921" fill-opacity="0.6"/>
<path fill-rule="evenodd" clip-rule="evenodd" d="M0.677246 25.0312L15.1146 61.9575L44.5381 77.9066L31.7774 38.7923L0.677246 25.0312Z" fill="#034532"/>
<path fill-rule="evenodd" clip-rule="evenodd" d="M1.90771 25.5759L43.9363 76.0632L31.777 38.7925L1.90771 25.5759Z" fill="black" fill-opacity="0.521569"/>
<path fill-rule="evenodd" clip-rule="evenodd" d="M47.3369 77.904L79.399 50.9042L71.5406 11.6118L34.4243 38.3242L47.3369 77.904Z" fill="#84AE8A"/>
<path fill-rule="evenodd" clip-rule="evenodd" d="M50.7926 23.2705H3.28003L32.7029 36.2896L50.7926 23.2705Z" fill="#2C6E54"/>
<path fill-rule="evenodd" clip-rule="evenodd" d="M79.3993 50.9041L55.769 22.9627L62.9288 17.8098L65.6824 15.828L71.5409 11.6116L79.3993 50.9041ZM54.0479 20.9277L36.3491 0L69.6363 9.70876L66.432 12.0149L64.4601 13.4341L54.0479 20.9277Z" fill="#034532" fill-opacity="0.439216"/>
<path fill-rule="evenodd" clip-rule="evenodd" d="M47.0838 77.1284L73.8555 23.2705H55.341L34.4243 38.3242L47.0838 77.1284Z" fill="#FEFEFE" fill-opacity="0.65098"/>
</svg>
