<svg width="74" height="46" viewBox="0 0 74 46" fill="none" xmlns="http://www.w3.org/2000/svg">
<path d="M24.3779 30.406L13.8544 15.0677L23.9501 0.498535H16.1645L7.00998 13.4869V0.498535H0.165527V30.406H7.00998V16.5631L16.5923 30.406H24.3779ZM42.3445 0.498535L37.0829 13.5723L31.2223 0.498535H24.3779L33.9601 21.0492C32.805 23.1427 31.094 24.2962 27.9712 23.9972V30.406C33.5752 30.705 37.8957 28.0561 40.548 21.6047L49.189 0.498535H42.3445ZM63.7335 11.607H59.028V7.07814H71.4336V0.498535H52.1835V30.406H63.7335C69.8508 30.406 74.0003 26.6889 74.0003 21.0064C74.0003 15.3241 69.8508 11.607 63.7335 11.607ZM63.7335 23.9972H59.028V18.0157H63.7335C65.6158 18.0157 67.1557 18.8275 67.1557 21.0064C67.1557 23.1855 65.6158 23.9972 63.7335 23.9972Z" fill="#1F1D1A"/>
<path d="M1.34752 36.794L2.73747 35.0618V35.0463H2.04251L0.777026 36.628V35.0463H0.165039V38.573H0.777026V36.9964L2.12549 38.573H2.84639V38.5522L1.34752 36.794ZM4.75497 38.6404C5.84411 38.6404 6.59095 37.8365 6.59095 36.8044C6.59095 35.7464 5.84411 34.9788 4.75497 34.9788C3.67621 34.9788 2.91899 35.7464 2.91899 36.8044C2.91899 37.8365 3.67621 38.6404 4.75497 38.6404ZM4.75497 38.0855C4.01851 38.0855 3.54654 37.515 3.54654 36.8044C3.54654 36.0731 4.01851 35.5338 4.75497 35.5338C5.49662 35.5338 5.96857 36.0731 5.96857 36.8044C5.96857 37.515 5.49662 38.0855 4.75497 38.0855ZM7.25997 38.573H7.87196V37.2868H8.60324C9.38119 37.2868 9.79612 36.7577 9.79612 36.182C9.79612 35.6012 9.37083 35.0463 8.61361 35.0463H7.25997V38.573ZM7.87196 36.7629V35.5804H8.55138C8.94035 35.5804 9.17893 35.8449 9.17893 36.1768C9.17893 36.4776 8.98184 36.7629 8.53582 36.7629H7.87196ZM10.3614 38.573H10.9734V35.6115H12.5656V38.573H13.1828V35.0463H10.3614V38.573ZM15.6826 38.6404C16.7718 38.6404 17.5186 37.8365 17.5186 36.8044C17.5186 35.7464 16.7718 34.9788 15.6826 34.9788C14.6039 34.9788 13.8466 35.7464 13.8466 36.8044C13.8466 37.8365 14.6039 38.6404 15.6826 38.6404ZM15.6826 38.0855C14.9462 38.0855 14.4742 37.515 14.4742 36.8044C14.4742 36.0731 14.9462 35.5338 15.6826 35.5338C16.4242 35.5338 16.8963 36.0731 16.8963 36.8044C16.8963 37.515 16.4242 38.0855 15.6826 38.0855ZM18.1876 38.573H18.7996V37.2868H19.531C20.3089 37.2868 20.7238 36.7577 20.7238 36.182C20.7238 35.6012 20.2985 35.0463 19.5412 35.0463H18.1876V38.573ZM18.7996 36.7629V35.5804H19.4791C19.8681 35.5804 20.1066 35.8449 20.1066 36.1768C20.1066 36.4776 19.9095 36.7629 19.4634 36.7629H18.7996ZM22.3783 35.0255H22.1916L20.5267 38.5626V38.573H21.1698L21.4602 37.935H23.1095L23.3999 38.573H24.0378V38.5574L22.3783 35.0255ZM22.2849 36.0109C22.3679 36.2391 22.4405 36.4258 22.5235 36.6125L22.9072 37.4526H21.6625L22.0464 36.6125C22.1292 36.4206 22.2018 36.2391 22.2849 36.0109ZM27.3 38.0077V35.0463H26.6881V38.0077H25.1063V35.0463H24.4942V38.573H27.1756V39.3613H27.7513V38.0077H27.3ZM31.1276 35.0255L29.2916 36.9807C29.1464 37.1311 29.0064 37.292 28.8819 37.4424C28.8923 37.2764 28.8975 37.1105 28.8975 36.9444V35.0463H28.2855V38.5937H28.467L30.3082 36.6177C30.4379 36.4776 30.5779 36.3272 30.7127 36.1717C30.7024 36.3428 30.6972 36.5139 30.6972 36.6747V38.573H31.3091V35.0255H31.1276ZM33.1813 35.0463C32.4293 35.0463 31.9833 35.5338 31.9833 36.1405C31.9833 36.5969 32.2478 37.017 32.7457 37.1622L31.8381 38.5522V38.573H32.5175L33.3785 37.2192H33.9853V38.573H34.5973V35.0463H33.1813ZM33.9853 36.7214H33.2385C32.8392 36.7214 32.5953 36.4932 32.5953 36.1457C32.5953 35.8034 32.8392 35.5752 33.2385 35.5752H33.9853V36.7214ZM38.7827 35.0463L37.9165 37.017L36.8845 35.0463H36.2206L37.6105 37.655C37.429 37.9351 37.1905 38.0647 36.7237 38.0803L36.7756 38.6093C37.6157 38.5678 37.9165 38.3136 38.316 37.4631L39.431 35.0463H38.7827ZM39.8822 38.573H40.4943V35.6115H42.0864V38.573H42.7036V35.0463H39.8822V38.573ZM43.5594 38.573H44.1713V37.2868H44.9026C45.6805 37.2868 46.0954 36.7577 46.0954 36.182C46.0954 35.6012 45.6701 35.0463 44.913 35.0463H43.5594V38.573ZM44.1713 36.7629V35.5804H44.8507C45.2397 35.5804 45.4782 35.8449 45.4782 36.1768C45.4782 36.4776 45.2812 36.7629 44.8352 36.7629H44.1713ZM47.7499 35.0255H47.5632L45.8983 38.5626V38.573H46.5415L46.8319 37.935H48.4811L48.7716 38.573H49.4096V38.5574L47.7499 35.0255ZM47.6565 36.0109C47.7395 36.2391 47.8121 36.4258 47.8951 36.6125L48.2789 37.4526H47.0342L47.418 36.6125C47.501 36.4206 47.5736 36.2391 47.6565 36.0109ZM51.9146 36.7266C52.1687 36.5658 52.3347 36.3065 52.3347 35.9694C52.3347 35.4197 51.8887 35.0463 51.2714 35.0463H49.866V38.573H51.3701C52.0183 38.573 52.4747 38.184 52.4747 37.5979C52.4747 37.1933 52.2517 36.877 51.9146 36.7266ZM50.4727 35.5493H51.1677C51.4944 35.5493 51.7174 35.7256 51.7174 36.0161C51.7174 36.3272 51.5255 36.5088 51.1781 36.5088H50.4727V35.5493ZM51.2714 38.0699H50.4727V37.0066H51.2922C51.6294 37.0066 51.8576 37.2142 51.8576 37.5357C51.8576 37.8676 51.619 38.0699 51.2714 38.0699ZM52.8377 38.6144C53.6001 38.573 53.9891 38.1425 54.1239 36.9651L54.2743 35.6115H55.3479V38.573H55.9599V35.0463H53.7453L53.5534 36.7681C53.4445 37.7172 53.2734 38.0595 52.7548 38.101L52.8377 38.6144ZM57.4329 38.0336V37.0429H58.8383V36.5191H57.4329V35.5856H59.0406V35.0463H56.8208V38.573H59.0873V38.0336H57.4329ZM59.7305 38.573H60.3424V37.0792H62.059V38.573H62.6711V35.0463H62.059V36.5139H60.3424V35.0463H59.7305V38.573ZM66.3742 35.0255L64.5381 36.9807C64.3929 37.1311 64.2529 37.292 64.1284 37.4424C64.1388 37.2764 64.144 37.1105 64.144 36.9444V35.0463H63.532V38.5937H63.7135L65.5547 36.6177C65.6844 36.4776 65.8244 36.3272 65.9593 36.1717C65.9489 36.3428 65.9437 36.5139 65.9437 36.6747V38.573H66.5557V35.0255H66.3742ZM68.428 35.0463C67.676 35.0463 67.2299 35.5338 67.2299 36.1405C67.2299 36.5969 67.4945 37.017 67.9922 37.1622L67.0846 38.5522V38.573H67.764L68.625 37.2192H69.2318V38.573H69.8438V35.0463H68.428ZM69.2318 36.7214H68.485C68.0857 36.7214 67.8418 36.4932 67.8418 36.1457C67.8418 35.8034 68.0857 35.5752 68.485 35.5752H69.2318V36.7214ZM0.165039 45.502H1.58091C2.32775 45.502 2.76858 44.9988 2.76858 44.4335C2.76858 43.8786 2.32775 43.3704 1.58091 43.3704H0.777026V42.5197H2.46259V41.9752H0.165039V45.502ZM0.777026 44.9884V43.8786H1.51347C1.91283 43.8786 2.15659 44.0912 2.15659 44.4335C2.15659 44.781 1.91283 44.9884 1.51347 44.9884H0.777026ZM6.23307 41.9544L4.3971 43.9097C4.25188 44.0601 4.11185 44.2209 3.98738 44.3713C3.99776 44.2053 4.00294 44.0394 4.00294 43.8734V41.9752H3.39095V45.5227H3.57249L5.41363 43.5467C5.5433 43.4067 5.68332 43.2562 5.81817 43.1007C5.80779 43.2718 5.80262 43.443 5.80262 43.6037V45.502H6.4146V41.9544H6.23307ZM8.30243 45.559C9.05964 45.559 9.55235 45.087 9.55235 44.5165C9.55235 44.0912 9.3086 43.7801 8.91961 43.64C9.1893 43.5259 9.39676 43.2355 9.39676 42.8827C9.39676 42.3278 8.88849 41.9129 8.21427 41.9129C7.84085 41.9129 7.46743 42.027 7.09921 42.3226L7.36371 42.748C7.61264 42.5508 7.88235 42.4628 8.15723 42.4628C8.53063 42.4628 8.77959 42.6443 8.77959 42.9503C8.77959 43.2303 8.59806 43.4326 8.2765 43.4326H7.82528V43.9356H8.29725C8.68103 43.9356 8.94035 44.1224 8.94035 44.4595C8.94035 44.8017 8.63954 45.0144 8.26614 45.0144C7.83566 45.0144 7.49336 44.8536 7.25997 44.6462L6.97472 45.0818C7.33257 45.4138 7.75786 45.559 8.30243 45.559ZM10.211 45.502H10.823V44.0082H12.5397V45.502H13.1517V41.9752H12.5397V43.443H10.823V41.9752H10.211V45.502ZM14.6246 44.9625V43.972H16.0301V43.4481H14.6246V42.5145H16.2323V41.9752H14.0127V45.502H16.279V44.9625H14.6246ZM18.5455 45.5694C19.1472 45.5694 19.6243 45.3307 19.9666 44.9106L19.5828 44.5165C19.3493 44.8225 19.0072 45.0144 18.5559 45.0144C17.8402 45.0144 17.3579 44.4543 17.3579 43.7334C17.3579 42.9918 17.8557 42.4628 18.5766 42.4628C19.0072 42.4628 19.3182 42.608 19.5723 42.8414L19.8888 42.4265C19.4947 42.0685 19.0952 41.9078 18.561 41.9078C17.4927 41.9078 16.7302 42.6754 16.7302 43.7334C16.7302 44.7499 17.4564 45.5694 18.5455 45.5694ZM22.0151 45.5694C23.1043 45.5694 23.8511 44.7654 23.8511 43.7334C23.8511 42.6754 23.1043 41.9078 22.0151 41.9078C20.9364 41.9078 20.1792 42.6754 20.1792 43.7334C20.1792 44.7654 20.9364 45.5694 22.0151 45.5694ZM22.0151 45.0144C21.2787 45.0144 20.8068 44.4439 20.8068 43.7334C20.8068 43.0021 21.2787 42.4628 22.0151 42.4628C22.7569 42.4628 23.2288 43.0021 23.2288 43.7334C23.2288 44.4439 22.7569 45.0144 22.0151 45.0144ZM27.7462 41.9493H27.5645L26.4962 43.5778C26.4184 43.6971 26.3406 43.8216 26.268 43.946C26.1954 43.8216 26.1176 43.6971 26.0398 43.5778L24.9765 41.9493H24.795L24.2764 45.502H24.8781L25.1478 43.5985C25.1633 43.4741 25.1841 43.36 25.1893 43.2251C25.2567 43.3444 25.3293 43.4585 25.4071 43.5674L26.2058 44.7914H26.3302L27.1341 43.5674C27.2067 43.4585 27.2793 43.3496 27.3415 43.2355C27.3519 43.3548 27.3676 43.4689 27.383 43.5934L27.6632 45.502H28.2648L27.7462 41.9493Z" fill="#808080"/>
</svg>
