<svg width="39" height="39" viewBox="0 0 39 39" fill="none" xmlns="http://www.w3.org/2000/svg">
<path d="M19.256 2.84409C17.9961 2.48751 16.6434 2.69738 15.5508 3.41892L4.9578 10.4143C3.2012 11.5743 2.48351 13.7971 3.23008 15.7653L7.67498 27.4837C8.04782 28.4666 8.75302 29.288 9.66821 29.8053L10.8984 27.6289L9.66822 29.8053L18.8325 34.9851C20.4838 35.9184 22.5429 35.7162 23.981 34.4794L34.0075 25.8566C35.2356 24.8004 35.8013 23.1656 35.4887 21.5762L33.0764 9.31404C32.7494 7.6518 31.5166 6.31406 29.8865 5.85272L29.2057 8.25823L29.8865 5.85272L19.256 2.84409Z" fill="white" stroke="white" stroke-width="5"/>
<path fill-rule="evenodd" clip-rule="evenodd" d="M17.8056 5L5.2356 13.0448L16.4967 18.0276L29.7554 8.48537L17.8056 5Z" fill="#0A4135"/>
<path fill-rule="evenodd" clip-rule="evenodd" d="M17.8056 5L5.2356 13.0448L5.58756 13.2005L29.2402 8.85616L29.7555 8.48536L17.8056 5Z" fill="#122921" fill-opacity="0.6"/>
<path fill-rule="evenodd" clip-rule="evenodd" d="M5 13.9858L10.1829 27.242L20.7457 32.9676L16.1647 18.9259L5 13.9858Z" fill="#034532"/>
<path fill-rule="evenodd" clip-rule="evenodd" d="M5.44189 14.1816L20.5298 32.3062L16.1647 18.9263L5.44189 14.1816Z" fill="black" fill-opacity="0.521569"/>
<path fill-rule="evenodd" clip-rule="evenodd" d="M21.7505 32.9668L33.2605 23.2741L30.4394 9.16846L17.115 18.758L21.7505 32.9668Z" fill="#84AE8A"/>
<path fill-rule="evenodd" clip-rule="evenodd" d="M22.991 13.3535H5.93433L16.4969 18.0272L22.991 13.3535Z" fill="#2C6E54"/>
<path fill-rule="evenodd" clip-rule="evenodd" d="M33.2606 23.2741L24.7775 13.2434L27.3478 11.3936L28.3363 10.6821L30.4395 9.16848L33.2606 23.2741ZM24.1596 12.5129L17.8059 5L29.7557 8.48536L28.6054 9.31324L27.8975 9.82271L24.1596 12.5129Z" fill="#034532" fill-opacity="0.439216"/>
<path fill-rule="evenodd" clip-rule="evenodd" d="M21.6597 32.688L31.2705 13.3535H24.6239L17.115 18.7577L21.6597 32.688Z" fill="#FEFEFE" fill-opacity="0.65098"/>
</svg>
