<svg width="81" height="182" viewBox="0 0 81 182" fill="none" xmlns="http://www.w3.org/2000/svg">
<path d="M80.3633 52.434C81.4035 52.434 78.9763 43.1667 78.7872 44.0177H74.9101C74.5318 44.0177 74.2481 44.4906 74.2481 44.4906C74.2481 44.4906 71.9786 44.3014 71.1275 44.1123C70.2765 43.9232 69.8036 43.9232 69.3308 43.4504C68.858 42.883 67.1558 42.3156 66.683 41.7482C66.2102 41.0862 65.0754 40.6134 64.6026 40.8971C64.1297 41.1808 63.2504 41 62.2504 40.5C62.2504 40.5 60.9123 39.7837 60.2504 39.5C59.5884 39.2163 59.4015 39.1004 59.2124 38.7221C59.0233 38.3439 57.6994 37.3982 56.9429 36.8309C56.1864 36.2635 55.3353 34.845 54.957 34.2776C54.5787 33.6157 54.1059 33.2374 53.7277 33.1428C53.3494 33.0483 52.7821 32.4809 52.2147 31.8189C51.6473 31.0624 50.7016 30.495 50.6071 29.8331L50.6022 29.794C50.5029 28.998 50.2131 26.6747 49.2831 24.4429C48.3375 22.1734 47.7701 20.2821 47.581 18.7691C47.3919 17.256 46.7299 12.3387 46.3517 11.2039C45.9734 10.1637 44.6495 9.31262 43.3256 8.36698C42.0017 7.42134 40.4887 7.13766 39.2593 6.66484L36.2333 5.34091C36.3278 5.90816 36.3278 6.56994 36.3278 7.04274V7.04309C36.3278 8.27242 37.0844 9.59632 37.6517 11.6767C38.2191 13.7571 38.5028 21.4169 38.5028 23.4973C38.5028 25.5777 38.6919 32.7646 38.6919 32.7646C38.6919 32.7646 35.6659 23.8755 33.1127 17.918C30.654 12.2441 24.129 1.36923 23.5617 0.423584C23.5617 0.423584 21.1976 1.84205 20.8193 1.84205C20.441 1.84205 20.1573 2.40944 20.1573 2.40944C20.1573 2.40944 17.6987 3.16595 16.753 3.26051C15.7128 3.35508 11.3629 4.5844 9.75526 5.34091C8.14767 6.09743 5.31073 6.47568 4.93247 9.12348C4.55421 11.7713 3.32488 19.0528 2.66293 22.1734C1.90642 25.3886 2.09554 27.0907 2.09554 28.1309C2.09554 29.2657 2.00097 30.4005 1.52815 32.1972C1.05533 34.0885 0.582507 36.1689 0.582507 37.5874C0.582507 39.0058 0.298814 46.1927 0.582507 48.1786C0.8662 50.1644 1.43361 53.1905 1.43361 56.5948C1.43361 59.9991 0.582524 61.985 2.28468 64.3491C4.0814 66.7132 4.74334 71.6305 4.8379 72.5762C4.93247 73.4272 6.63464 77.3044 7.0129 79.0065C7.0129 79.0065 6.72919 82.2217 7.29658 84.9641C7.86397 87.801 9.28244 89.2195 10.3226 89.5977C11.3629 89.976 12.5922 91.489 12.5922 91.489C12.5922 91.489 13.6324 97.8248 13.6324 99.2433C13.6324 100.756 15.24 103.972 14.3889 105.579C13.5378 107.281 14.1052 111.158 13.5378 112.482C12.9704 113.806 13.1596 116.17 12.3085 120.615C11.4574 125.154 11.9302 137.164 12.3085 140.473C12.5922 143.783 13.8215 164.02 13.8215 164.776C13.8215 165.533 14.9563 165.911 14.578 167.708C14.1998 169.599 13.9161 172.909 14.7672 174.044C15.6182 175.178 16.0911 177.448 18.266 179.623C20.441 181.798 23.1834 181.987 25.8312 181.609C28.3844 181.231 29.8029 178.11 27.3442 174.422C24.8856 170.639 25.8312 167.897 25.8312 167.897L26.0203 163.642L27.2497 163.358C27.2497 163.358 27.2497 165.722 28.1007 166.1C28.9518 166.479 31.1268 166.951 32.7344 167.14C34.342 167.33 34.4365 166.289 34.4365 166.289C35.0985 166.289 38.3137 167.708 42.8528 167.708C47.3919 167.708 50.0397 166.289 52.0255 165.911C54.0114 165.533 53.5385 163.831 49.5668 162.601C45.5951 161.372 46.4462 162.412 44.6495 161.656C42.8528 160.899 41.1506 159.103 41.1506 159.103C41.1506 159.103 40.9615 154.28 40.9615 151.348C40.9615 148.322 42.0017 141.608 42.0017 135.651C42.0017 129.693 45.6897 93.1912 45.6897 88.463C45.6897 83.7348 46.2571 83.451 47.3919 84.3021C48.5266 85.1532 47.6756 82.2217 47.1082 80.7087C46.5408 79.1957 46.3517 76.0751 46.3517 76.0751C46.3517 73.7109 46.4462 63.0252 46.068 60.0937C45.5952 56.7839 44.2713 47.1383 44.1767 46.0036C44.0821 44.7742 44.3658 43.3558 44.3658 40.8971C44.3658 38.4384 44.2713 39.2895 45.406 40.6134C46.5408 41.9373 47.3918 41.9373 48.3375 42.5993C49.2831 43.2612 49.9451 43.0721 50.5125 43.8286C51.0798 44.5851 54.106 46.9492 55.0516 47.8003C56.0918 48.6514 59.4961 50.1644 60.2526 50.5427C61.0092 50.9209 61.7656 51.1101 62.2385 51.2992C62.7113 51.4883 65.4221 52.8122 65.4221 52.8122C65.4221 52.8122 64.7602 53.0013 64.7602 53.285C64.7602 53.5687 65.5167 53.2851 64.7602 53.6633C64.0036 54.0416 64.571 54.5144 65.4221 54.7981C66.2732 55.0818 66.5569 55.46 66.9352 55.46C67.3134 55.46 67.6917 55.1763 67.8808 54.7981C68.07 54.4198 67.7862 54.5144 68.5427 54.5144C69.2047 54.5144 69.2047 54.3253 69.2993 53.947C69.3939 53.5687 69.7721 53.4742 70.2449 53.3796C70.7178 53.285 71.2851 53.1905 71.4743 52.9068C71.6634 52.7177 71.758 51.9611 72.1362 51.9611C72.4199 51.9611 74.2166 51.2046 74.784 51.0155C75.3514 50.8264 74.1535 49.6916 74.1535 49.6916C74.1535 49.6916 76.3916 48.4623 76.5807 49.1242C76.7698 49.7862 79.3231 52.434 80.3633 52.434Z" fill="#CC4C06"/>
</svg>
