<svg width="148" height="209" viewBox="0 0 148 209" fill="none" xmlns="http://www.w3.org/2000/svg">
<path fill-rule="evenodd" clip-rule="evenodd" d="M50.1507 7.18689C50.4344 7.56515 51.8528 11.726 51.9473 12.577C52.0419 13.4281 52.1365 13.901 52.2311 14.1846C52.4202 14.4683 52.0419 14.8466 51.9473 15.1303C51.7582 15.414 51.6637 16.1705 51.6637 16.1705C51.6637 16.1705 51.5691 16.7379 51.5691 17.0216C51.5691 17.3053 51.8528 18.0618 52.4202 19.102C52.9876 20.2367 52.893 20.7096 52.5148 20.8042C52.1365 20.9933 51.2854 21.3715 51.2854 21.7498C51.2854 22.1281 51.0017 22.4117 51.0963 22.6954C51.2854 22.9791 50.6235 23.4519 50.6235 23.4519C50.6235 23.4519 51.0017 23.8302 50.9072 24.1139C50.8126 24.3976 50.4344 24.4921 50.6235 25.2487C50.8126 26.0052 51.1908 27.991 49.7724 28.1802C48.3539 28.3693 45.7061 28.2747 45.517 29.0312C45.3279 29.7877 45.0442 30.4497 45.0442 30.4497L43.1529 32.5301C43.1529 32.5301 39.4649 29.3149 38.2355 28.2747C37.0062 27.2345 34.6421 25.3432 33.9802 24.7758C33.3182 24.1139 33.791 23.3574 33.8856 22.79C33.9801 22.2226 32.8454 20.4259 32.278 19.4803C31.7106 18.5346 30.3867 14.4683 30.103 13.0499C29.9139 11.6314 29.1574 8.03796 30.103 6.52493C31.0487 5.0119 33.1291 2.55323 33.6019 2.26954C34.0747 1.98585 36.4388 0.661945 36.8171 0.378252C37.1953 0.189123 37.6682 0.189111 38.141 0.189111C38.6138 0.189111 39.654 0 40.8834 0C42.1127 0 42.7747 0.567392 42.7747 0.567392C42.7747 0.567392 43.8149 0.661939 44.6659 0.756503C45.517 0.851067 44.7605 1.51304 46.7463 1.51304C48.7322 1.51304 48.6376 1.51302 48.9213 1.79672C49.1105 2.08041 49.867 2.08042 50.4343 2.45868C51.0017 2.74237 50.5289 3.68799 51.0963 3.97168C51.6637 4.16081 51.9474 5.57928 51.38 5.95754C50.718 6.52493 49.867 6.80864 50.1507 7.18689Z" fill="#CC4C06"/>
<path fill-rule="evenodd" clip-rule="evenodd" d="M45.2333 30.2606C45.1387 30.5443 45.0442 30.6388 45.0442 30.6388L43.1529 32.7193C43.1529 32.7193 39.4649 29.5041 38.2355 28.4639C37.0062 27.4237 34.6421 25.5324 33.9801 24.965C33.8856 24.8704 33.8856 24.7759 33.791 24.6813C33.791 24.6813 33.0345 23.9248 32.8454 25.7215C32.6562 27.5182 32.6563 27.2345 32.6563 27.2345C32.6563 27.2345 39.654 38.8659 42.2072 44.7289C44.7605 50.6865 47.7865 59.5755 47.7865 59.5755C47.7865 59.5755 47.5974 52.3886 47.5974 50.3082C47.5974 48.2278 47.3137 40.5681 46.7463 38.4877C46.1789 36.4073 45.4224 35.0834 45.4224 33.854C45.517 32.6247 45.2333 30.2606 45.2333 30.2606Z" fill="#D4E2EF"/>
<path d="M89.3633 79.434C90.4035 79.434 87.9763 70.1667 87.7872 71.0177H83.9101C83.5318 71.0177 83.2481 71.4906 83.2481 71.4906C83.2481 71.4906 80.9786 71.3014 80.1275 71.1123C79.2765 70.9232 78.8036 70.9232 78.3308 70.4504C77.858 69.883 76.1558 69.3156 75.683 68.7482C75.2102 68.0862 74.0754 67.6134 73.6026 67.8971C73.1297 68.1808 72.2504 68 71.2504 67.5C71.2504 67.5 69.9123 66.7837 69.2504 66.5C68.5884 66.2163 68.4015 66.1004 68.2124 65.7221C68.0233 65.3439 66.6994 64.3982 65.9429 63.8309C65.1864 63.2635 64.3353 61.845 63.957 61.2776C63.5787 60.6157 63.1059 60.2374 62.7277 60.1428C62.3494 60.0483 61.7821 59.4809 61.2147 58.8189C60.6473 58.0624 59.7016 57.495 59.6071 56.8331L59.6022 56.794C59.5029 55.998 59.2131 53.6747 58.2831 51.4429C57.3375 49.1734 56.7701 47.2821 56.581 45.7691C56.3919 44.256 55.7299 39.3387 55.3517 38.2039C54.9734 37.1637 53.6495 36.3126 52.3256 35.367C51.0017 34.4213 49.4887 34.1377 48.2593 33.6648L45.2333 32.3409C45.3278 32.9082 45.3278 33.5699 45.3278 34.0427V34.0431C45.3278 35.2724 46.0844 36.5963 46.6517 38.6767C47.2191 40.7571 47.5028 48.4169 47.5028 50.4973C47.5028 52.5777 47.6919 59.7646 47.6919 59.7646C47.6919 59.7646 44.6659 50.8755 42.1127 44.918C39.654 39.2441 33.129 28.3692 32.5617 27.4236C32.5617 27.4236 30.1976 28.842 29.8193 28.842C29.441 28.842 29.1573 29.4094 29.1573 29.4094C29.1573 29.4094 26.6987 30.1659 25.753 30.2605C24.7128 30.3551 20.3629 31.5844 18.7553 32.3409C17.1477 33.0974 14.3107 33.4757 13.9325 36.1235C13.5542 38.7713 12.3249 46.0528 11.6629 49.1734C10.9064 52.3886 11.0955 54.0907 11.0955 55.1309C11.0955 56.2657 11.001 57.4005 10.5281 59.1972C10.0553 61.0885 9.58251 63.1689 9.58251 64.5874C9.58251 66.0058 9.29881 73.1927 9.58251 75.1786C9.8662 77.1644 10.4336 80.1905 10.4336 83.5948C10.4336 86.9991 9.58252 88.985 11.2847 91.3491C13.0814 93.7132 13.7433 98.6305 13.8379 99.5762C13.9325 100.427 15.6346 104.304 16.0129 106.007C16.0129 106.007 15.7292 109.222 16.2966 111.964C16.864 114.801 18.2824 116.219 19.3226 116.598C20.3629 116.976 21.5922 118.489 21.5922 118.489C21.5922 118.489 22.6324 124.825 22.6324 126.243C22.6324 127.756 24.24 130.972 23.3889 132.579C22.5378 134.281 23.1052 138.158 22.5378 139.482C21.9704 140.806 22.1596 143.17 21.3085 147.615C20.4574 152.154 20.9302 164.164 21.3085 167.473C21.5922 170.783 22.8215 191.02 22.8215 191.776C22.8215 192.533 23.9563 192.911 23.578 194.708C23.1998 196.599 22.9161 199.909 23.7672 201.044C24.6182 202.178 25.0911 204.448 27.266 206.623C29.441 208.798 32.1834 208.987 34.8312 208.609C37.3844 208.231 38.8029 205.11 36.3442 201.422C33.8856 197.639 34.8312 194.897 34.8312 194.897L35.0203 190.642L36.2497 190.358C36.2497 190.358 36.2497 192.722 37.1007 193.1C37.9518 193.479 40.1268 193.951 41.7344 194.14C43.342 194.33 43.4365 193.289 43.4365 193.289C44.0985 193.289 47.3137 194.708 51.8528 194.708C56.3919 194.708 59.0397 193.289 61.0255 192.911C63.0114 192.533 62.5385 190.831 58.5668 189.601C54.5951 188.372 55.4462 189.412 53.6495 188.656C51.8528 187.899 50.1506 186.103 50.1506 186.103C50.1506 186.103 49.9615 181.28 49.9615 178.348C49.9615 175.322 51.0017 168.608 51.0017 162.651C51.0017 156.693 54.6897 120.191 54.6897 115.463C54.6897 110.735 55.2571 110.451 56.3919 111.302C57.5266 112.153 56.6756 109.222 56.1082 107.709C55.5408 106.196 55.3517 103.075 55.3517 103.075C55.3517 100.711 55.4462 90.0252 55.068 87.0937C54.5952 83.7839 53.2713 74.1383 53.1767 73.0036C53.0821 71.7742 53.3658 70.3558 53.3658 67.8971C53.3658 65.4384 53.2713 66.2895 54.406 67.6134C55.5408 68.9373 56.3918 68.9373 57.3375 69.5993C58.2831 70.2612 58.9451 70.0721 59.5125 70.8286C60.0798 71.5851 63.106 73.9492 64.0516 74.8003C65.0918 75.6514 68.4961 77.1644 69.2526 77.5427C70.0092 77.9209 70.7656 78.1101 71.2385 78.2992C71.7113 78.4883 74.4221 79.8122 74.4221 79.8122C74.4221 79.8122 73.7602 80.0013 73.7602 80.285C73.7602 80.5687 74.5167 80.2851 73.7602 80.6633C73.0036 81.0416 73.571 81.5144 74.4221 81.7981C75.2732 82.0818 75.5569 82.46 75.9352 82.46C76.3134 82.46 76.6917 82.1763 76.8808 81.7981C77.07 81.4198 76.7862 81.5144 77.5427 81.5144C78.2047 81.5144 78.2047 81.3253 78.2993 80.947C78.3939 80.5687 78.7721 80.4742 79.2449 80.3796C79.7178 80.285 80.2851 80.1905 80.4743 79.9068C80.6634 79.7177 80.758 78.9611 81.1362 78.9611C81.4199 78.9611 83.2166 78.2046 83.784 78.0155C84.3514 77.8264 83.1535 76.6916 83.1535 76.6916C83.1535 76.6916 85.3916 75.4623 85.5807 76.1242C85.7698 76.7862 88.3231 79.434 89.3633 79.434Z" fill="#CC4C06"/>
<path fill-rule="evenodd" clip-rule="evenodd" d="M15.8237 104.683C15.8237 104.683 16.4857 104.494 17.3368 104.304C18.0933 104.115 19.1335 102.886 20.2683 102.413C21.403 101.94 23.578 101.846 23.8617 102.035C24.1454 102.224 24.4291 102.602 24.4291 102.602C22.5378 103.453 20.2683 104.777 19.2281 105.723C17.5259 107.141 16.2966 107.614 16.2966 106.385C16.2966 106.196 16.2965 106.007 16.202 105.818L15.8237 104.683Z" fill="#D4E2EF"/>
<path fill-rule="evenodd" clip-rule="evenodd" d="M42.68 33.4756C41.8289 33.4756 40.3159 34.4212 39.1811 34.8941C38.0463 35.3669 38.0464 35.0832 39.7485 35.556C41.4507 36.1234 40.9779 36.1234 40.9779 37.069C40.9779 38.0147 41.9235 37.6364 41.6398 38.2984C41.3561 38.9603 41.167 44.6342 41.167 44.6342L47.9756 61.2775C47.9756 61.2775 48.3539 56.7384 48.3539 55.8873C48.3539 54.9417 45.7061 46.9037 45.2333 45.0124C44.7604 43.0266 43.9093 38.4875 44.0985 38.0147C44.2876 37.5418 44.2876 36.6908 44.3821 36.1234C44.4767 35.556 44.2876 35.556 45.0441 35.556C45.8006 35.556 45.517 34.9886 45.1387 34.7995C44.855 34.5158 43.5311 33.4756 42.68 33.4756Z" fill="#B94100"/>
<path fill-rule="evenodd" clip-rule="evenodd" d="M42.68 33.4756C41.8289 33.4756 40.3159 34.4212 39.1811 34.8941C38.0463 35.3669 38.0464 35.0832 39.7485 35.556C41.4507 36.1234 40.9779 36.1234 40.9779 37.069C40.9779 38.0147 41.9235 37.6364 41.6398 38.2984C41.3561 38.9603 41.167 44.6342 41.167 44.6342L47.9756 61.2775C47.9756 61.2775 48.3539 56.7384 48.3539 55.8873C48.3539 54.9417 45.7061 46.9037 45.2333 45.0124C44.7604 43.0266 43.9093 38.4875 44.0985 38.0147C44.2876 37.5418 44.2876 36.6908 44.3821 36.1234C44.4767 35.556 44.2876 35.556 45.0441 35.556C45.8006 35.556 45.517 34.9886 45.1387 34.7995C44.855 34.5158 43.5311 33.4756 42.68 33.4756Z" stroke="#CC4C06" stroke-width="0.3568" stroke-miterlimit="3.8637"/>
<path fill-rule="evenodd" clip-rule="evenodd" d="M120.251 177.403L120.345 177.592C120.345 177.592 119.778 177.308 118.643 177.592C117.508 177.875 116.846 179.294 116.846 179.767C116.846 180.334 117.792 182.509 118.454 183.076C118.738 183.36 120.44 184.4 121.764 185.251C121.386 186.008 121.102 186.764 121.102 186.954C121.102 187.332 121.386 187.899 121.386 187.899C121.386 187.899 119.021 189.034 118.359 189.412C117.698 189.791 112.402 191.114 110.7 191.304C108.998 191.493 107.674 191.398 106.917 191.682C106.161 191.966 105.31 193.668 105.499 194.235C105.688 194.802 105.31 195.843 105.31 195.843C105.31 195.843 105.688 196.883 107.485 197.545C109.281 198.207 117.508 200.949 118.738 201.138C119.967 201.327 123.466 201.044 124.601 200.76C125.83 200.476 129.424 199.247 129.802 199.247C130.18 199.247 129.896 200.665 129.896 200.665L132.639 200.855C134.057 200.949 138.029 200.571 138.691 200.098C139.353 199.625 140.109 198.774 140.109 198.49C140.109 198.207 139.731 194.708 139.731 194.708V192.344C139.731 191.304 139.353 187.426 139.258 186.954C139.164 186.481 139.258 186.954 140.488 186.575C141.717 186.197 142.19 184.873 142.19 184.306C142.19 183.738 141.906 182.32 141.906 182.036C141.906 181.753 141.149 178.821 141.244 177.781C141.339 176.741 139.447 168.324 139.258 167.946C139.069 167.568 135.948 151.114 135.948 150.168C135.948 149.222 135.097 146.102 134.908 144.4C134.719 142.698 132.639 135.511 132.639 135.038C132.639 134.565 132.355 127.284 132.355 125.96C132.355 124.541 131.788 119.246 131.788 119.246C131.788 119.246 131.693 117.26 131.788 116.787C131.882 116.314 133.963 116.219 134.908 115.936C135.854 115.652 138.974 114.896 139.826 114.423C140.677 113.95 140.771 111.113 140.866 109.978C140.96 108.938 141.244 107.992 141.717 110.829C142.19 113.666 142.284 113.761 142.662 113.666C143.041 113.572 145.216 111.87 147.012 110.924C148.715 109.978 147.391 109.316 147.012 106.574C146.634 103.832 144.932 86.9991 144.932 85.8643C144.932 84.7296 143.324 67.4243 142.946 62.4124C142.568 57.4005 142.379 49.9299 142.757 47.093C143.135 44.1615 143.797 40.8517 141.906 38.1093C140.015 35.367 134.814 29.9768 133.206 29.1257C131.598 28.3692 128.667 27.6127 128.667 26.3834C128.667 25.154 128.289 23.9247 128.289 23.9247C128.289 23.9247 129.518 18.0617 131.031 15.4139C132.45 12.6715 130.464 5.48465 129.424 4.44444C128.383 3.40423 124.506 1.70207 122.331 1.41838C120.251 1.13469 118.359 1.04012 117.603 0.945557C116.752 0.945557 115.05 1.41838 113.631 1.98577C112.213 2.55315 111.267 3.02597 110.794 3.59336C110.322 4.06618 109.943 5.20095 110.132 5.67377C110.322 6.05203 109.849 6.61942 109.187 7.4705C108.619 8.32158 107.674 11.3476 107.39 11.7259C107.106 12.1041 106.823 12.577 107.106 12.8607C107.39 13.1444 107.39 13.7117 107.39 13.9954C107.39 14.1846 106.35 16.265 105.688 17.1161C104.931 17.9671 105.026 18.44 105.688 18.6291C106.35 18.8182 106.917 19.0073 107.012 19.291C107.106 19.4802 107.012 20.8041 107.012 20.9932C106.917 21.0878 107.106 21.6552 107.201 21.9388C107.295 22.128 106.917 22.6008 106.823 22.8845C106.823 23.1682 107.295 24.2084 107.295 24.7758C107.295 25.9105 107.295 26.7616 108.43 27.329C109.565 27.8018 111.362 27.5181 112.213 27.5181C112.969 27.5181 114.104 27.991 114.482 28.6529C114.766 29.3149 115.144 30.3551 115.144 30.3551L114.671 34.0431C114.671 34.0431 109.943 36.9746 109.281 39.6224C108.619 42.3647 106.539 57.2113 106.823 59.9537C107.012 62.6961 106.539 62.6961 105.782 63.9254C104.931 65.1547 104.175 65.3439 104.175 67.046C104.175 68.7482 102.756 69.9775 102.756 69.9775C102.756 69.9775 99.4466 69.1264 98.5955 69.9775C97.7445 70.8286 95.9477 70.1667 94.6238 70.1667C93.3945 70.1667 89.801 71.0177 88.1935 71.0177C86.5859 71.0177 86.6804 71.3014 86.6804 71.3014C86.6804 71.3014 84.6 70.2612 83.9381 70.0721C83.2761 69.883 80.912 68.8428 79.8718 69.0319C79.1775 69.1581 75.0625 68.2286 73.7601 69.0319C73.1113 69.432 75.649 70.4539 74.7057 71.8688C70.4503 75.6514 64.3037 74.2329 64.7765 76.1242C64.5873 76.4079 68.0862 77.0698 67.1406 77.5427C66.9514 77.8264 69.1264 77.6372 69.0318 78.0155C68.9373 78.2992 70.9231 78.0155 70.9231 78.9611C72.0579 79.434 71.7742 79.7177 72.8144 79.9068C73.9492 80.1905 84.6 76.597 84.7891 76.597C84.9783 76.597 84.7892 79.8122 84.6946 80.8524C84.6 81.8926 85.4511 82.5546 85.6402 82.8383C85.8294 83.122 86.5859 83.2165 88.95 83.122C91.3141 83.0274 95.9477 82.7437 96.8934 82.7437C97.839 82.7437 105.12 81.0416 105.12 81.0416C105.12 81.0416 104.553 96.4555 104.269 97.4957C103.986 98.5359 104.837 114.234 104.553 115.558C104.269 116.881 105.593 117.449 108.336 117.449C111.078 117.449 109.943 118.3 110.227 119.34C110.511 120.38 113.158 147.142 114.577 150.074C115.901 153.005 118.927 167.568 118.927 168.419C118.927 169.081 119.589 171.067 119.778 171.729L120.251 177.403Z" fill="#26473B"/>
<path fill-rule="evenodd" clip-rule="evenodd" d="M86.9992 70.9234C86.9992 70.9234 86.7891 71.9484 86.321 72.684C85.9198 73.3526 86.0535 74.9575 85.5855 76.0942C85.1174 77.2309 85.1183 78.8358 84.784 78.9027C84.4496 78.9696 82.5096 78.9026 82.5096 78.9026C83.2451 76.9635 83.9138 74.4225 83.9807 73.0183C84.1813 70.8117 84.7162 69.6081 85.5855 70.4773C85.7192 70.6111 85.8529 70.7448 86.0535 70.8117L86.9992 70.9234Z" fill="#D4E2EF"/>
<path fill-rule="evenodd" clip-rule="evenodd" d="M129.553 27.4237C129.553 27.4237 127.914 29.1493 126.696 30.0512C124.715 31.5174 123.185 32.2475 121.052 32.874C118.918 33.5005 114.896 34.4392 114.423 34.0432C113.95 33.6471 114.896 31.2064 114.896 31.2064C118.464 30.0489 121.518 28.623 123.575 27.1276C126.915 24.9126 128.607 24.5869 128.607 24.5869C128.607 24.5869 129.42 27.065 129.553 27.4237Z" fill="#D4E2EF"/>
<path d="M75.1073 68.2969C75.1073 68.2969 78.5806 71.1404 78.3584 72.9666C78.2136 74.1576 77.2401 73.2667 76.329 72.3556C75.2729 71.2995 74.8278 72.2727 72.1873 69.6325C71.1496 68.595 75.1073 68.2969 75.1073 68.2969Z" fill="#CC4C06"/>
<path fill-rule="evenodd" clip-rule="evenodd" d="M40.6627 118.348C39.8116 118.158 29.5986 118.064 29.2204 117.78C28.8421 117.497 25.6269 113.998 24.5867 113.809C23.5465 113.619 19.7639 111.917 17.4944 112.768C15.1303 113.525 13.3336 115.794 12.9553 115.889C12.4825 115.983 10.8749 116.645 10.8749 116.645C10.8749 116.645 4.06627 116.456 2.9315 116.456C1.79672 116.456 1.13477 116.078 0.945643 117.686C0.756515 119.293 0.472823 130.074 0.378259 131.114C0.283694 132.059 0.85108 132.816 0.85108 132.816C0.85108 132.816 0 146.339 0 146.717C0 147.095 0.378258 147.946 2.08042 148.135C3.68801 148.324 36.4073 151.067 37.2583 151.067C38.1094 151.067 38.3931 150.31 38.7714 149.932C39.1496 149.459 40.379 149.554 41.0409 149.554C41.7029 149.554 41.7974 119.199 41.7974 118.726C41.892 118.158 41.5137 118.537 40.6627 118.348Z" fill="#CC4C06"/>
</svg>
