<svg width="208" height="210" viewBox="0 0 208 210" fill="none" xmlns="http://www.w3.org/2000/svg">
<path fill-rule="evenodd" clip-rule="evenodd" d="M46.4999 22.9C46.6999 21.2 47.0999 20.9 47.3999 20.6C47.6999 20.3 48.0999 19.8 48.0999 18.4C48.0999 16.9 48.2999 15.9 48.4999 15.4C48.6999 14.9 48.6999 13.9 48.7999 13C48.8999 12 48.6999 7 48.3999 6.3C48.0999 5.6 45.9999 2.8 45.2999 2.4C44.5999 2 42.7999 1.1 42.0999 1C41.2999 0.7 40.2999 0 38.3999 0C36.4999 0 34.5999 0.3 34.2999 1C33.9999 1.7 32.1999 2 31.7999 2.1C31.3999 2.2 30.0999 4.5 29.2999 5.8C28.4999 7.1 27.6999 10.6 27.6999 11.3C27.6999 12 27.8999 13.8 27.9999 14.1C28.0999 14.4 27.4999 14.5 27.5999 15.4C27.6999 16.3 27.8999 17.9 28.2999 18.5C28.6999 19.2 28.9999 19.8 29.0999 20.3C29.1999 20.8 29.4999 21 29.8999 21.1C30.2999 21.2 30.1999 23 30.6999 24.1C31.1999 25.2 31.0999 25.4 31.1999 26.2C31.2999 27 31.2999 27.8 31.2999 27.8C31.2999 27.8 30.6999 29.6 29.3999 29.6C27.9999 29.6 27.5999 29.6 27.2999 30.3C26.8999 31 26.2999 32.4 24.9999 33.3C23.6999 34.2 20.1999 35.6 19.4999 36.1C18.5999 36.6 14.3999 40.7 13.3999 41C12.3999 41.3 10.3999 44.5 10.1999 45.6C9.99994 46.7 9.69994 51.9 9.49994 52.5C9.39994 53.1 9.09994 55.6 9.29994 56.1C9.39994 56.6 9.69994 61.7 9.69994 62.7C9.69994 63.7 10.0999 73.4 10.3999 73.9C10.5999 74.4 10.8999 74.9 10.6999 76C10.4999 77.2 11.0999 82.6 11.2999 83.3C11.4999 84 11.5999 86.6 11.5999 87.9C11.5999 89.1 14.6999 107.3 14.8999 108.1C15.0999 108.8 15.8999 114.5 15.8999 115C15.8999 115.5 16.4999 115.5 16.9999 115.5C17.4999 115.5 16.8999 117.5 16.8999 118.3C16.8999 119.1 17.1999 120.6 17.4999 120.9C17.7999 121.2 19.1999 121.8 19.3999 121.6C19.5999 121.4 19.8999 122.4 19.8999 122.4C19.8999 122.4 20.5999 157.7 20.3999 159.8C20.1999 161.9 20.1999 179.9 21.5999 182.4C22.9999 184.9 24.4999 186.3 24.8999 187C25.2999 187.7 25.4999 188 24.5999 188.8C23.5999 189.6 23.4999 191.6 23.3999 192.1C23.2999 192.6 23.4999 196.9 23.4999 196.9L24.2999 196.8C24.2999 196.8 24.0999 198.8 23.9999 199C23.8999 199.2 23.8999 200.5 23.9999 201.1C24.0999 201.8 24.5999 202.8 24.7999 202.9C24.9999 203.1 26.0999 203.2 26.0999 203.2C26.0999 203.2 26.1999 204.7 26.3999 205.1C26.5999 205.5 28.1999 208.1 31.7999 208.8C35.3999 209.6 39.0999 209.3 39.9999 209.3C40.8999 209.3 40.8999 208.7 40.8999 208.2C40.8999 207.7 40.7999 206.6 40.4999 205.8C40.1999 205 39.7999 204.3 39.3999 203.7C38.9999 203 37.3999 200.3 37.3999 199.6C37.3999 198.9 36.2999 197.4 36.0999 196.9C35.8999 196.4 35.7999 195.8 36.0999 195.8C36.3999 195.7 36.1999 194.4 36.5999 193.1C37.0999 191.8 36.9999 190.1 37.4999 189.9C37.9999 189.7 37.3999 187 36.1999 185.2C35.0999 183.4 33.7999 181.3 33.4999 180.1C33.1999 178.9 33.0999 177.6 33.5999 176.7C34.0999 175.8 34.3999 173.6 33.7999 171.4C33.0999 169.1 32.9999 166.5 33.8999 163.5C34.6999 160.5 37.6999 141.9 37.8999 141.1C38.0999 140.4 39.2999 141 39.5999 142.2C39.8999 143.4 43.6999 158.2 43.9999 159.1C44.2999 160.1 45.6999 164.8 45.6999 165.4C45.6999 166 48.7999 178.2 49.1999 180.9C49.5999 183.7 51.2999 186.3 51.6999 187.7C52.0999 189.1 54.6999 193.2 54.9999 194.2C55.2999 195.2 55.4999 198.2 55.6999 198.9C55.8999 199.6 56.8999 200.2 56.8999 200.2C56.8999 200.2 56.7999 203.5 56.7999 203.9C56.7999 204.3 57.7999 204.7 58.8999 204.9C59.9999 205.1 64.4999 205.2 65.0999 205.3C65.6999 205.4 65.4999 204 65.4999 204C65.4999 204 66.7999 203.3 68.7999 204.1C70.7999 204.8 75.5999 206.3 76.6999 206.5C77.7999 206.6 84.3999 206.5 85.1999 206.5C85.9999 206.5 90.1999 204.1 90.7999 203.8C91.3999 203.5 90.5999 202.2 90.3999 201.7C90.1999 201.2 89.7999 200.9 88.4999 201.2C87.1999 201.5 82.5999 201.1 80.6999 200.2C78.7999 199.3 75.0999 197.3 75.0999 196.5C75.0999 195.7 73.6999 194.8 73.6999 194.8C73.6999 194.8 74.1999 194.4 73.9999 194.1C73.7999 193.9 70.4999 189.1 70.3999 188.2C70.2999 187.4 70.3999 185.5 68.9999 184.9C67.6999 184.3 66.1999 183.4 66.2999 182.6C66.3999 181.8 64.5999 176.8 64.5999 175.1C64.4999 173.4 64.6999 171 64.3999 170.5C63.9999 170 62.3999 168.9 62.3999 167.9C62.3999 166.8 61.2999 160.2 61.5999 159.5C61.8999 158.8 61.1999 149.4 61.0999 146C60.9999 142.6 60.9999 136.8 60.3999 135.2C59.6999 133.7 59.5999 130.4 59.8999 128.6C60.2999 126.8 61.2999 117.9 61.5999 116.9C61.7999 115.9 61.5999 114.3 61.5999 114.3C61.5999 114.3 62.3999 113.2 63.3999 111.3C64.4999 109.3 65.1999 104 65.1999 102.7C65.1999 101.4 63.3999 96.9 61.9999 94.7C60.5999 92.6 60.1999 90.8 59.9999 90C59.8999 89.2 59.3999 85.9 59.5999 85C59.7999 84 60.0999 80.4 59.9999 77.4C59.8999 74.4 58.4999 71.5 58.4999 70.1C58.4999 68.7 56.4999 48.9 56.2999 47.5C56.0999 46.1 55.3999 42.9 55.4999 42C55.5999 41.1 54.9999 40.9 54.3999 40.7C53.6999 40.5 49.3999 37.6 48.9999 37.4C48.5999 37.2 44.0999 34 43.8999 33.7C43.6999 33.4 43.6999 32.7 43.6999 32.4C43.6999 32 43.7999 28.1 43.7999 28.1C43.7999 28.1 45.4999 26.2 45.6999 25.9C45.7999 25.8 46.1999 24.6 46.4999 22.9Z" fill="#CC4C06"/>
<path fill-rule="evenodd" clip-rule="evenodd" d="M41.7 34.8999C41 34.7999 40.7 34.3999 39.2 33.4999C37.7 32.5999 32.7 30.1999 31.9 29.2999C31.1 28.3999 31 27.8999 31 27.8999C31 27.8999 30.5 28.8999 29.8 29.2999C29.1 29.5999 29.4 30.9999 29.7 31.5999C30 32.1999 38.7 44.1999 40.2 46.8999C41.7 49.5999 41.9 49.6999 41.9 49.6999C41.9 49.6999 41.4 43.6999 41.5 42.5999C41.6 41.4999 41.8 39.7999 41.8 39.7999C41.8 39.7999 40.2 37.8999 39.7 37.8999C39.2 37.8999 38.3 38.2999 38.7 37.7999C39.3 37.2999 41.7 34.8999 41.7 34.8999Z" fill="#D4E2EF"/>
<path fill-rule="evenodd" clip-rule="evenodd" d="M43.9999 32.8999L41.8999 34.6999C41.8999 34.6999 42.9999 34.9999 43.3999 35.1999C43.7999 35.4999 43.9999 36.4999 44.1999 37.8999C44.3999 39.2999 45.2999 45.0999 45.4999 45.7999C45.6999 46.3999 47.2999 52.3999 47.2999 51.8999C47.2999 51.4999 47.4999 46.4999 47.1999 45.0999C46.8999 43.5999 45.0999 37.3999 45.0999 36.5999C44.9999 35.7999 44.7999 33.8999 44.7999 33.8999L43.9999 32.8999Z" fill="#D4E2EF"/>
<path fill-rule="evenodd" clip-rule="evenodd" d="M43 123.7C42.1 123.5 31.3 123.4 30.9 123.1C30.5 122.8 27.1 119.1 26 118.9C24.9 118.7 20.9 116.9 18.5 117.8C16 118.6 14.1 121 13.7 121.1C13.2 121.2 11.5 121.9 11.5 121.9C11.5 121.9 4.3 121.7 3.1 121.7C1.9 121.7 1.2 121.3 1 123C0.8 124.7 0.500002 136.1 0.400002 137.2C0.300002 138.2 0.900002 139 0.900002 139C0.900002 139 0 153.3 0 153.7C0 154.1 0.400001 155 2.2 155.2C3.9 155.4 38.5 158.3 39.4 158.3C40.3 158.3 40.6 157.5 41 157.1C41.4 156.6 42.7 156.7 43.4 156.7C44.1 156.7 44.2 124.6 44.2 124.1C44.3 123.5 43.9 123.9 43 123.7Z" fill="#CC4C06"/>
<path fill-rule="evenodd" clip-rule="evenodd" d="M189.119 27.1942H188.344C188.344 27.1942 187.182 25.6406 187.182 25.0581C187.182 24.4755 187.085 22.5336 189.409 19.5236C191.733 16.6108 190.958 10.2025 190.862 8.45475C190.765 6.70703 189.893 4.37674 189.216 4.37674C188.538 4.37674 187.86 3.89126 187.666 3.40578C187.569 2.92031 185.342 1.65807 184.277 1.07549C183.212 0.492921 180.307 -0.283843 179.533 0.104539C178.661 0.590017 173.239 0.49292 172.852 0.881302C172.464 1.36678 171.302 1.26969 170.818 1.26969C170.334 1.26969 167.429 2.33773 167.429 2.33773C167.429 2.33773 165.686 4.76512 166.171 5.83317C166.655 6.90122 166.074 8.55184 165.977 10.6879C165.88 12.824 165.88 13.6979 165.59 14.0863C165.396 14.4747 166.267 15.1543 166.267 15.6398C166.267 16.1253 165.106 17.9701 164.621 18.6498C164.137 19.3294 163.653 20.6888 164.718 20.7859C165.783 20.883 166.461 21.5626 166.461 22.3394C166.461 23.0191 166.461 23.5045 166.848 23.99C167.236 24.4755 167.429 24.5726 167.042 25.1552C166.655 25.7377 167.429 25.6406 167.429 26.4174C167.429 27.1942 166.267 29.3303 168.979 29.1361C171.69 28.9419 173.142 29.9128 173.433 30.3012C173.626 30.6896 175.466 34.185 175.466 34.185C175.466 34.185 169.269 50.4971 168.785 51.9535C168.301 53.4099 166.655 61.9543 166.655 63.7992C166.655 65.644 165.977 69.9162 165.977 69.9162C165.977 69.9162 164.718 71.6639 164.137 72.829C163.556 73.9942 160.264 77.878 160.264 77.878C160.264 77.878 157.94 78.9461 157.069 79.1402C156.294 79.3344 154.067 80.3054 153.583 81.2763C153.099 82.2473 154.067 83.0241 154.067 83.0241C154.067 83.0241 154.164 84.5776 154.842 84.8689C155.52 85.2573 155.907 86.1311 155.423 86.6166C154.939 87.1021 154.648 87.8788 154.939 88.4614C155.229 89.044 156.101 88.5585 156.778 88.3643C157.456 88.1701 156.875 90.2091 157.553 90.2091C158.231 90.2091 159.296 90.3062 159.974 90.0149C160.651 89.6266 162.491 88.7527 163.363 88.3643C164.331 87.9759 165.59 87.2963 165.59 87.2963C165.59 87.2963 164.912 92.2481 164.815 92.8307C164.718 93.4133 163.459 108.075 163.459 111.958C163.459 115.842 163.653 117.202 164.815 116.037C165.977 114.871 165.977 115.163 165.88 116.716C165.783 118.27 162.588 143.417 162.588 144.971C162.588 146.524 163.169 147.398 163.459 148.272C163.653 149.049 164.234 149.729 162.975 150.505C161.717 151.282 161.717 157.302 161.329 159.924C160.942 162.545 160.748 163.419 159.296 164.196C157.94 164.876 155.229 171.964 154.067 173.808C152.905 175.653 151.647 177.11 152.518 178.76C153.486 180.411 153.68 181.382 152.421 181.964C151.162 182.547 150.485 183.712 149.807 184.295C149.226 184.877 149.226 186.528 149.226 186.528C149.226 186.528 147.096 187.402 146.031 188.276C144.965 189.246 142.157 189.829 140.802 189.926C139.446 190.023 136.348 189.926 135.38 190.12C134.411 190.315 134.218 190.606 134.024 191.383C133.83 192.159 134.799 193.227 137.413 194.198C140.027 195.169 147.289 195.169 149.71 195.169C152.131 195.169 156.875 193.422 156.875 193.422V195.169C156.875 195.169 161.813 195.266 162.685 195.266C163.653 195.266 166.752 195.169 166.752 193.616C166.752 192.062 166.752 189.538 166.655 188.761C166.558 188.081 166.074 186.431 167.429 185.848C168.882 185.266 168.785 182.935 170.141 180.993C171.399 179.149 175.176 170.022 176.337 164.196C177.499 158.37 179.436 151.865 179.726 150.311C180.114 148.758 181.857 140.699 181.857 140.699C181.857 140.699 182.922 152.641 183.406 154.972C183.89 157.302 185.73 159.924 186.02 161.574C186.214 163.225 185.923 164.584 185.246 167.012C184.568 169.342 185.342 172.643 185.342 174.585C185.342 176.43 184.471 182.353 184.471 184.295C184.471 186.334 184.18 186.139 182.922 186.431C181.76 186.625 181.566 187.596 181.857 188.858C182.244 190.12 180.598 194.49 180.598 194.49C180.598 194.49 177.79 196.043 177.79 197.305C177.79 198.568 173.239 201.772 172.658 202.257C172.077 202.743 171.496 203.422 169.366 203.811C167.236 204.199 166.752 204.976 166.752 205.947C166.752 206.918 165.783 207.209 168.01 207.986C170.237 208.666 171.302 209.151 174.304 208.957C177.306 208.666 185.246 207.695 186.02 206.918C186.795 206.238 189.022 202.937 189.022 202.937L191.055 203.908C191.055 203.908 194.154 203.228 194.928 202.84C195.606 202.451 195.8 198.179 195.8 198.179C195.8 198.179 196.187 196.529 196.187 194.878C196.187 193.227 195.509 192.645 197.93 190.8C200.351 188.955 200.544 186.528 201.028 184.003C201.513 181.382 204.321 162.157 202.674 156.622C201.028 151.088 200.641 148.078 200.641 144.874C200.641 141.67 200.447 130.504 200.447 129.047C200.447 127.494 201.028 117.784 201.028 117.784C201.028 117.784 203.933 117.299 204.611 116.716C205.289 116.134 206.16 115.163 206.16 115.163L208 115.939C208 115.939 207.516 112.056 207.225 110.114C206.838 108.075 205.095 94.0929 203.933 92.0539C202.771 89.9178 201.319 82.2473 201.319 81.3734C201.319 80.4025 200.835 79.5286 201.319 79.0431C201.803 78.5577 202.384 77.6838 202.578 75.2564C202.771 72.9261 205.386 65.5469 205.386 63.0224C205.386 60.4979 204.902 58.8473 205.289 56.0315C205.676 53.2158 205.773 47.9726 204.708 44.7684C203.643 41.5643 201.319 36.127 200.06 35.156C198.801 34.0879 190.958 30.9809 190.958 30.9809L189.119 27.1942Z" fill="#26473B"/>
<path fill-rule="evenodd" clip-rule="evenodd" d="M189 26.7059L187.837 25C187.837 25 184.152 27.6091 181.728 28.8132C179.305 30.0174 176.784 33.3289 175.814 34.5331C174.845 35.7373 175.136 35.5366 176.105 36.7408C177.075 37.9449 178.335 38.9484 177.947 39.0488C177.559 39.1491 175.523 40.6544 175.523 40.6544C175.523 40.6544 173.1 50.3882 173.003 51.793C172.906 53.2983 175.523 46.1735 176.784 43.9659C178.044 41.7582 184.346 31.5226 185.316 30.1178C186.673 28.1108 189 26.7059 189 26.7059Z" fill="#BFD3E7"/>
<path fill-rule="evenodd" clip-rule="evenodd" d="M166.523 77L164.523 77.9559C164.523 77.9559 163.57 80.1544 164.237 82.8309C164.904 85.5074 167.476 90 167.476 90L169 89.5221C169 89.5221 166.809 86.4632 166.523 85.3162C166.237 84.1691 165.761 81.0147 165.952 79.6765C166.142 78.5294 166.523 77 166.523 77Z" fill="#BFD3E7"/>
</svg>
