<svg width="84" height="202" viewBox="0 0 84 202" fill="none" xmlns="http://www.w3.org/2000/svg">
<path fill-rule="evenodd" clip-rule="evenodd" d="M56.2508 177.403L56.3453 177.592C56.3453 177.592 55.778 177.308 54.6432 177.592C53.5084 177.875 52.8465 179.294 52.8465 179.767C52.8465 180.334 53.7921 182.509 54.454 183.076C54.7377 183.36 56.4399 184.4 57.7638 185.251C57.3855 186.008 57.1019 186.764 57.1019 186.954C57.1019 187.332 57.3855 187.899 57.3855 187.899C57.3855 187.899 55.0214 189.034 54.3595 189.412C53.6975 189.791 48.4019 191.114 46.6998 191.304C44.9976 191.493 43.6737 191.398 42.9172 191.682C42.1607 191.966 41.3096 193.668 41.4988 194.235C41.6879 194.802 41.3096 195.843 41.3096 195.843C41.3096 195.843 41.6879 196.883 43.4846 197.545C45.2813 198.207 53.5084 200.949 54.7378 201.138C55.9671 201.327 59.466 201.044 60.6007 200.76C61.8301 200.476 65.4235 199.247 65.8018 199.247C66.18 199.247 65.8963 200.665 65.8963 200.665L68.6387 200.855C70.0572 200.949 74.0288 200.571 74.6908 200.098C75.3527 199.625 76.1092 198.774 76.1092 198.49C76.1092 198.207 75.731 194.708 75.731 194.708V192.344C75.731 191.304 75.3528 187.426 75.2582 186.954C75.1636 186.481 75.2582 186.954 76.4875 186.575C77.7169 186.197 78.1897 184.873 78.1897 184.306C78.1897 183.738 77.906 182.32 77.906 182.036C77.906 181.753 77.1495 178.821 77.244 177.781C77.3386 176.741 75.4473 168.324 75.2582 167.946C75.0691 167.568 71.9484 151.114 71.9484 150.168C71.9484 149.222 71.0973 146.102 70.9082 144.4C70.7191 142.698 68.6387 135.511 68.6387 135.038C68.6387 134.565 68.355 127.284 68.355 125.96C68.355 124.541 67.7876 119.246 67.7876 119.246C67.7876 119.246 67.693 117.26 67.7876 116.787C67.8822 116.314 69.9626 116.219 70.9082 115.936C71.8539 115.652 74.9745 114.896 75.8256 114.423C76.6766 113.95 76.7712 111.113 76.8657 109.978C76.9603 108.938 77.244 107.992 77.7169 110.829C78.1897 113.666 78.2842 113.761 78.6625 113.666C79.0407 113.572 81.2157 111.87 83.0124 110.924C84.7146 109.978 83.3907 109.316 83.0124 106.574C82.6342 103.832 80.9321 86.9991 80.9321 85.8643C80.9321 84.7296 79.3244 67.4243 78.9462 62.4124C78.5679 57.4005 78.3788 49.9299 78.757 47.093C79.1353 44.1615 79.7973 40.8517 77.906 38.1093C76.0147 35.367 70.8137 29.9768 69.2061 29.1257C67.5985 28.3692 64.667 27.6127 64.667 26.3834C64.667 25.154 64.2887 23.9247 64.2887 23.9247C64.2887 23.9247 65.5181 18.0617 67.0311 15.4139C68.4496 12.6715 66.4637 5.48465 65.4235 4.44444C64.3833 3.40423 60.5062 1.70207 58.3312 1.41838C56.2508 1.13469 54.3595 1.04012 53.603 0.945557C52.7519 0.945557 51.0497 1.41838 49.6313 1.98577C48.2128 2.55315 47.2672 3.02597 46.7943 3.59336C46.3215 4.06618 45.9433 5.20095 46.1324 5.67377C46.3215 6.05203 45.8487 6.61942 45.1868 7.4705C44.6194 8.32158 43.6737 11.3476 43.39 11.7259C43.1063 12.1041 42.8226 12.577 43.1063 12.8607C43.39 13.1444 43.39 13.7117 43.39 13.9954C43.39 14.1846 42.3498 16.265 41.6879 17.1161C40.9313 17.9671 41.0259 18.44 41.6879 18.6291C42.3498 18.8182 42.9172 19.0073 43.0118 19.291C43.1063 19.4802 43.0118 20.8041 43.0118 20.9932C42.9172 21.0878 43.1063 21.6552 43.2009 21.9388C43.2955 22.128 42.9172 22.6008 42.8226 22.8845C42.8226 23.1682 43.2955 24.2084 43.2955 24.7758C43.2955 25.9105 43.2955 26.7616 44.4302 27.329C45.565 27.8018 47.3617 27.5181 48.2128 27.5181C48.9693 27.5181 50.1041 27.991 50.4824 28.6529C50.7661 29.3149 51.1443 30.3551 51.1443 30.3551L50.6715 34.0431C50.6715 34.0431 45.9433 36.9746 45.2813 39.6224C44.6194 42.3647 42.539 57.2113 42.8226 59.9537C43.0118 62.6961 42.5389 62.6961 41.7824 63.9254C40.9314 65.1547 40.1748 65.3439 40.1748 67.046C40.1748 68.7482 38.7564 69.9775 38.7564 69.9775C38.7564 69.9775 35.4466 69.1264 34.5955 69.9775C33.7445 70.8286 31.9477 70.1667 30.6238 70.1667C29.3945 70.1667 25.801 71.0177 24.1935 71.0177C22.5859 71.0177 22.6804 71.3014 22.6804 71.3014C22.6804 71.3014 20.6 70.2612 19.9381 70.0721C19.2761 69.883 16.912 68.8428 15.8718 69.0319C15.1775 69.1581 11.0625 68.2286 9.76009 69.0319C9.11133 69.432 11.649 70.4539 10.7057 71.8688C6.4503 75.6514 0.303653 74.2329 0.776467 76.1242C0.587338 76.4079 4.08619 77.0698 3.14057 77.5427C2.95144 77.8264 5.1264 77.6372 5.03183 78.0155C4.93727 78.2992 6.92312 78.0155 6.92312 78.9611C8.05789 79.434 7.77419 79.7177 8.8144 79.9068C9.94917 80.1905 20.6 76.597 20.7891 76.597C20.9783 76.597 20.7892 79.8122 20.6946 80.8524C20.6 81.8926 21.4511 82.5546 21.6402 82.8383C21.8294 83.122 22.5859 83.2165 24.95 83.122C27.3141 83.0274 31.9477 82.7437 32.8934 82.7437C33.839 82.7437 41.1205 81.0416 41.1205 81.0416C41.1205 81.0416 40.5531 96.4555 40.2694 97.4957C39.9857 98.5359 40.8368 114.234 40.5531 115.558C40.2694 116.881 41.5933 117.449 44.3357 117.449C47.078 117.449 45.9433 118.3 46.227 119.34C46.5107 120.38 49.1584 147.142 50.5769 150.074C51.9008 153.005 54.9269 167.568 54.9269 168.419C54.9269 169.081 55.5888 171.067 55.7779 171.729L56.2508 177.403Z" fill="#26473B"/>
</svg>
