<svg width="74" height="209" viewBox="0 0 74 209" fill="none" xmlns="http://www.w3.org/2000/svg">
<path fill-rule="evenodd" clip-rule="evenodd" d="M55.1187 27.1942H54.3441C54.3441 27.1942 53.1821 25.6406 53.1821 25.0581C53.1821 24.4755 53.0853 22.5336 55.4092 19.5236C57.733 16.6108 56.9584 10.2025 56.8616 8.45475C56.7648 6.70703 55.8933 4.37674 55.2155 4.37674C54.5377 4.37674 53.8599 3.89126 53.6663 3.40578C53.5695 2.92031 51.3424 1.65807 50.2773 1.07549C49.2122 0.492921 46.3074 -0.283843 45.5328 0.104539C44.6613 0.590017 39.239 0.49292 38.8517 0.881302C38.4644 1.36678 37.3025 1.26969 36.8183 1.26969C36.3342 1.26969 33.4294 2.33773 33.4294 2.33773C33.4294 2.33773 31.6865 4.76512 32.1706 5.83317C32.6548 6.90122 32.0738 8.55184 31.9769 10.6879C31.8801 12.824 31.8801 13.6979 31.5896 14.0863C31.396 14.4747 32.2674 15.1543 32.2674 15.6398C32.2674 16.1253 31.1055 17.9701 30.6214 18.6498C30.1372 19.3294 29.6531 20.6888 30.7182 20.7859C31.7833 20.883 32.4611 21.5626 32.4611 22.3394C32.4611 23.0191 32.4611 23.5045 32.8484 23.99C33.2357 24.4755 33.4294 24.5726 33.0421 25.1552C32.6547 25.7377 33.4294 25.6406 33.4294 26.4174C33.4294 27.1942 32.2674 29.3303 34.9786 29.1361C37.6898 28.9419 39.1422 29.9128 39.4327 30.3012C39.6263 30.6896 41.466 34.185 41.466 34.185C41.466 34.185 35.2691 50.4971 34.785 51.9535C34.3008 53.4099 32.6548 61.9543 32.6548 63.7992C32.6548 65.644 31.9769 69.9162 31.9769 69.9162C31.9769 69.9162 30.7182 71.6639 30.1372 72.829C29.5563 73.9942 26.2641 77.878 26.2641 77.878C26.2641 77.878 23.9403 78.9461 23.0688 79.1402C22.2942 79.3344 20.0672 80.3054 19.5831 81.2763C19.0989 82.2473 20.0672 83.0241 20.0672 83.0241C20.0672 83.0241 20.164 84.5776 20.8418 84.8689C21.5196 85.2573 21.9069 86.1311 21.4228 86.6166C20.9386 87.1021 20.6482 87.8788 20.9386 88.4614C21.2291 89.044 22.1006 88.5585 22.7784 88.3643C23.4561 88.1701 22.8752 90.2091 23.553 90.2091C24.2308 90.2091 25.2959 90.3062 25.9737 90.0149C26.6514 89.6266 28.4912 88.7527 29.3626 88.3643C30.3309 87.9759 31.5896 87.2963 31.5896 87.2963C31.5896 87.2963 30.9118 92.2481 30.815 92.8307C30.7182 93.4133 29.4594 108.075 29.4594 111.958C29.4594 115.842 29.6531 117.202 30.815 116.037C31.9769 114.871 31.977 115.163 31.8801 116.716C31.7833 118.27 28.588 143.417 28.588 144.971C28.588 146.524 29.169 147.398 29.4594 148.272C29.6531 149.049 30.2341 149.729 28.9753 150.505C27.7166 151.282 27.7166 157.302 27.3292 159.924C26.9419 162.545 26.7483 163.419 25.2959 164.196C23.9403 164.876 21.2291 171.964 20.0672 173.808C18.9053 175.653 17.6465 177.11 18.518 178.76C19.4862 180.411 19.6799 181.382 18.4211 181.964C17.1624 182.547 16.4846 183.712 15.8068 184.295C15.2258 184.877 15.2258 186.528 15.2258 186.528C15.2258 186.528 13.0956 187.402 12.0305 188.276C10.9654 189.246 8.15743 189.829 6.80185 189.926C5.44626 190.023 2.3478 189.926 1.37952 190.12C0.411252 190.315 0.217588 190.606 0.0239337 191.383C-0.169721 192.159 0.798552 193.227 3.41289 194.198C6.02723 195.169 13.2893 195.169 15.71 195.169C18.1307 195.169 22.8752 193.422 22.8752 193.422V195.169C22.8752 195.169 27.8134 195.266 28.6848 195.266C29.6531 195.266 32.7516 195.169 32.7516 193.616C32.7516 192.062 32.7516 189.538 32.6548 188.761C32.5579 188.081 32.0738 186.431 33.4294 185.848C34.8818 185.266 34.7849 182.935 36.1405 180.993C37.3993 179.149 41.1756 170.022 42.3375 164.196C43.4994 158.37 45.436 151.865 45.7264 150.311C46.1138 148.758 47.8566 140.699 47.8566 140.699C47.8566 140.699 48.9217 152.641 49.4059 154.972C49.89 157.302 51.7297 159.924 52.0202 161.574C52.2139 163.225 51.9234 164.584 51.2456 167.012C50.5678 169.342 51.3424 172.643 51.3424 174.585C51.3424 176.43 50.471 182.353 50.471 184.295C50.471 186.334 50.1805 186.139 48.9217 186.431C47.7598 186.625 47.5662 187.596 47.8566 188.858C48.2439 190.12 46.5979 194.49 46.5979 194.49C46.5979 194.49 43.7899 196.043 43.7899 197.305C43.7899 198.568 39.239 201.772 38.658 202.257C38.0771 202.743 37.4961 203.422 35.3659 203.811C33.2357 204.199 32.7516 204.976 32.7516 205.947C32.7516 206.918 31.7833 207.209 34.0103 207.986C36.2374 208.666 37.3025 209.151 40.3041 208.957C43.3058 208.666 51.2456 207.695 52.0202 206.918C52.7948 206.238 55.0219 202.937 55.0219 202.937L57.0552 203.908C57.0552 203.908 60.1537 203.228 60.9283 202.84C61.6061 202.451 61.7998 198.179 61.7998 198.179C61.7998 198.179 62.1871 196.529 62.1871 194.878C62.1871 193.227 61.5093 192.645 63.93 190.8C66.3506 188.955 66.5443 186.528 67.0285 184.003C67.5126 181.382 70.3206 162.157 68.6745 156.622C67.0284 151.088 66.6411 148.078 66.6411 144.874C66.6411 141.67 66.4475 130.504 66.4475 129.047C66.4475 127.494 67.0285 117.784 67.0285 117.784C67.0285 117.784 69.9333 117.299 70.611 116.716C71.2888 116.134 72.1603 115.163 72.1603 115.163L74 115.939C74 115.939 73.5159 112.056 73.2254 110.114C72.8381 108.075 71.0952 94.0929 69.9333 92.0539C68.7713 89.9178 67.3189 82.2473 67.3189 81.3734C67.3189 80.4025 66.8348 79.5286 67.3189 79.0431C67.8031 78.5577 68.384 77.6838 68.5777 75.2564C68.7713 72.9261 71.3857 65.5469 71.3857 63.0224C71.3857 60.4979 70.9015 58.8473 71.2888 56.0315C71.6762 53.2158 71.773 47.9726 70.7079 44.7684C69.6428 41.5643 67.3189 36.127 66.0602 35.156C64.8014 34.088 56.9584 30.9809 56.9584 30.9809L55.1187 27.1942Z" fill="#26473B"/>
</svg>
