<svg width="83" height="210" viewBox="0 0 83 210" fill="none" xmlns="http://www.w3.org/2000/svg">
<path fill-rule="evenodd" clip-rule="evenodd" d="M37.4999 22.9C37.6999 21.2 38.0999 20.9 38.3999 20.6C38.6999 20.3 39.0999 19.8 39.0999 18.4C39.0999 16.9 39.2999 15.9 39.4999 15.4C39.6999 14.9 39.6999 13.9 39.7999 13C39.8999 12 39.6999 7 39.3999 6.3C39.0999 5.6 36.9999 2.8 36.2999 2.4C35.5999 2 33.7999 1.1 33.0999 1C32.2999 0.7 31.2999 0 29.3999 0C27.4999 0 25.5999 0.3 25.2999 1C24.9999 1.7 23.1999 2 22.7999 2.1C22.3999 2.2 21.0999 4.5 20.2999 5.8C19.4999 7.1 18.6999 10.6 18.6999 11.3C18.6999 12 18.8999 13.8 18.9999 14.1C19.0999 14.4 18.4999 14.5 18.5999 15.4C18.6999 16.3 18.8999 17.9 19.2999 18.5C19.6999 19.2 19.9999 19.8 20.0999 20.3C20.1999 20.8 20.4999 21 20.8999 21.1C21.2999 21.2 21.1999 23 21.6999 24.1C22.1999 25.2 22.0999 25.4 22.1999 26.2C22.2999 27 22.2999 27.8 22.2999 27.8C22.2999 27.8 21.6999 29.6 20.3999 29.6C18.9999 29.6 18.5999 29.6 18.2999 30.3C17.8999 31 17.2999 32.4 15.9999 33.3C14.6999 34.2 11.1999 35.6 10.4999 36.1C9.59994 36.6 5.39994 40.7 4.39994 41C3.39994 41.3 1.39994 44.5 1.19994 45.6C0.999941 46.7 0.69994 51.9 0.49994 52.5C0.39994 53.1 0.0999435 55.6 0.299943 56.1C0.399944 56.6 0.699941 61.7 0.699941 62.7C0.699941 63.7 1.09994 73.4 1.39994 73.9C1.59994 74.4 1.89994 74.9 1.69994 76C1.49994 77.2 2.09994 82.6 2.29994 83.3C2.49994 84 2.59994 86.6 2.59994 87.9C2.59994 89.1 5.69994 107.3 5.89994 108.1C6.09994 108.8 6.89994 114.5 6.89994 115C6.89994 115.5 7.49994 115.5 7.99994 115.5C8.49994 115.5 7.89994 117.5 7.89994 118.3C7.89994 119.1 8.19994 120.6 8.49994 120.9C8.79994 121.2 10.1999 121.8 10.3999 121.6C10.5999 121.4 10.8999 122.4 10.8999 122.4C10.8999 122.4 11.5999 157.7 11.3999 159.8C11.1999 161.9 11.1999 179.9 12.5999 182.4C13.9999 184.9 15.4999 186.3 15.8999 187C16.2999 187.7 16.4999 188 15.5999 188.8C14.5999 189.6 14.4999 191.6 14.3999 192.1C14.2999 192.6 14.4999 196.9 14.4999 196.9L15.2999 196.8C15.2999 196.8 15.0999 198.8 14.9999 199C14.8999 199.2 14.8999 200.5 14.9999 201.1C15.0999 201.8 15.5999 202.8 15.7999 202.9C15.9999 203.1 17.0999 203.2 17.0999 203.2C17.0999 203.2 17.1999 204.7 17.3999 205.1C17.5999 205.5 19.1999 208.1 22.7999 208.8C26.3999 209.6 30.0999 209.3 30.9999 209.3C31.8999 209.3 31.8999 208.7 31.8999 208.2C31.8999 207.7 31.7999 206.6 31.4999 205.8C31.1999 205 30.7999 204.3 30.3999 203.7C29.9999 203 28.3999 200.3 28.3999 199.6C28.3999 198.9 27.2999 197.4 27.0999 196.9C26.8999 196.4 26.7999 195.8 27.0999 195.8C27.3999 195.7 27.1999 194.4 27.5999 193.1C28.0999 191.8 27.9999 190.1 28.4999 189.9C28.9999 189.7 28.3999 187 27.1999 185.2C26.0999 183.4 24.7999 181.3 24.4999 180.1C24.1999 178.9 24.0999 177.6 24.5999 176.7C25.0999 175.8 25.3999 173.6 24.7999 171.4C24.0999 169.1 23.9999 166.5 24.8999 163.5C25.6999 160.5 28.6999 141.9 28.8999 141.1C29.0999 140.4 30.2999 141 30.5999 142.2C30.8999 143.4 34.6999 158.2 34.9999 159.1C35.2999 160.1 36.6999 164.8 36.6999 165.4C36.6999 166 39.7999 178.2 40.1999 180.9C40.5999 183.7 42.2999 186.3 42.6999 187.7C43.0999 189.1 45.6999 193.2 45.9999 194.2C46.2999 195.2 46.4999 198.2 46.6999 198.9C46.8999 199.6 47.8999 200.2 47.8999 200.2C47.8999 200.2 47.7999 203.5 47.7999 203.9C47.7999 204.3 48.7999 204.7 49.8999 204.9C50.9999 205.1 55.4999 205.2 56.0999 205.3C56.6999 205.4 56.4999 204 56.4999 204C56.4999 204 57.7999 203.3 59.7999 204.1C61.7999 204.8 66.5999 206.3 67.6999 206.5C68.7999 206.6 75.3999 206.5 76.1999 206.5C76.9999 206.5 81.1999 204.1 81.7999 203.8C82.3999 203.5 81.5999 202.2 81.3999 201.7C81.1999 201.2 80.7999 200.9 79.4999 201.2C78.1999 201.5 73.5999 201.1 71.6999 200.2C69.7999 199.3 66.0999 197.3 66.0999 196.5C66.0999 195.7 64.6999 194.8 64.6999 194.8C64.6999 194.8 65.1999 194.4 64.9999 194.1C64.7999 193.9 61.4999 189.1 61.3999 188.2C61.2999 187.4 61.3999 185.5 59.9999 184.9C58.6999 184.3 57.1999 183.4 57.2999 182.6C57.3999 181.8 55.5999 176.8 55.5999 175.1C55.4999 173.4 55.6999 171 55.3999 170.5C54.9999 170 53.3999 168.9 53.3999 167.9C53.3999 166.8 52.2999 160.2 52.5999 159.5C52.8999 158.8 52.1999 149.4 52.0999 146C51.9999 142.6 51.9999 136.8 51.3999 135.2C50.6999 133.7 50.5999 130.4 50.8999 128.6C51.2999 126.8 52.2999 117.9 52.5999 116.9C52.7999 115.9 52.5999 114.3 52.5999 114.3C52.5999 114.3 53.3999 113.2 54.3999 111.3C55.4999 109.3 56.1999 104 56.1999 102.7C56.1999 101.4 54.3999 96.9 52.9999 94.7C51.5999 92.6 51.1999 90.8 50.9999 90C50.8999 89.2 50.3999 85.9 50.5999 85C50.7999 84 51.0999 80.4 50.9999 77.4C50.8999 74.4 49.4999 71.5 49.4999 70.1C49.4999 68.7 47.4999 48.9 47.2999 47.5C47.0999 46.1 46.3999 42.9 46.4999 42C46.5999 41.1 45.9999 40.9 45.3999 40.7C44.6999 40.5 40.3999 37.6 39.9999 37.4C39.5999 37.2 35.0999 34 34.8999 33.7C34.6999 33.4 34.6999 32.7 34.6999 32.4C34.6999 32 34.7999 28.1 34.7999 28.1C34.7999 28.1 36.4999 26.2 36.6999 25.9C36.7999 25.8 37.1999 24.6 37.4999 22.9Z" fill="#CC4C06"/>
</svg>
