<svg width="268" height="1005" viewBox="0 0 268 1005" fill="none" xmlns="http://www.w3.org/2000/svg">
<path d="M214.353 0.5C212.972 0.5 211.853 1.61929 211.853 3C211.853 4.38071 212.972 5.5 214.353 5.5L214.353 0.5ZM209.97 195L195.537 220L224.404 220L209.97 195ZM265 244.5L267.5 244.5L265 244.5ZM5.49997 590C5.49997 588.619 4.38068 587.5 2.99997 587.5C1.61927 587.5 0.499974 588.619 0.499974 590L5.49997 590ZM0.500018 298C0.500018 299.381 1.61931 300.5 3.00002 300.5C4.38072 300.5 5.50002 299.381 5.50002 298L0.500018 298ZM5.50001 446C5.50001 444.619 4.38072 443.5 3.00001 443.5C1.6193 443.5 0.500011 444.619 0.500011 446L5.50001 446ZM0.500009 486.5C0.500009 487.881 1.6193 489 3.00001 489C4.38072 489 5.50001 487.881 5.50001 486.5L0.500009 486.5ZM0.499972 634.5C0.499972 635.881 1.61927 637 2.99997 637C4.38068 637 5.49997 635.881 5.49997 634.5L0.499972 634.5ZM5.49999 825C5.49999 823.619 4.3807 822.5 2.99999 822.5C1.61929 822.5 0.499995 823.619 0.499995 825L5.49999 825ZM5.49999 969C5.49999 967.619 4.3807 966.5 2.99999 966.5C1.61928 966.5 0.499988 967.619 0.499988 969L5.49999 969ZM0.499993 864.5C0.499993 865.881 1.61929 867 2.99999 867C4.3807 867 5.49999 865.881 5.49999 864.5L0.499993 864.5ZM262.5 306.5C262.5 307.881 263.619 309 265 309C266.381 309 267.5 307.881 267.5 306.5L262.5 306.5ZM262.5 469.5C262.5 470.881 263.619 472 265 472C266.381 472 267.5 470.881 267.5 469.5L262.5 469.5ZM262.5 668C262.5 669.381 263.619 670.5 265 670.5C266.381 670.5 267.5 669.381 267.5 668L262.5 668ZM262.5 825C262.5 826.381 263.619 827.5 265 827.5C266.381 827.5 267.5 826.381 267.5 825L262.5 825ZM267.5 964.5C267.5 963.119 266.381 962 265 962C263.619 962 262.5 963.119 262.5 964.5L267.5 964.5ZM267.5 760.5C267.5 759.119 266.381 758 265 758C263.619 758 262.5 759.119 262.5 760.5L267.5 760.5ZM267.5 603.5C267.5 602.119 266.381 601 265 601C263.619 601 262.5 602.119 262.5 603.5L267.5 603.5ZM267.5 400C267.5 398.619 266.381 397.5 265 397.5C263.619 397.5 262.5 398.619 262.5 400L267.5 400ZM189.97 244L189.97 241.5L189.97 244ZM23 244L23 246.5L23 244ZM245 1000L23 1000L23 1005L245 1005L245 1000ZM23 246.5L189.97 246.5L189.97 241.5L23 241.5L23 246.5ZM212.47 224L212.47 217.5L207.47 217.5L207.47 224L212.47 224ZM214.353 5.5L245 5.5L245 0.5L214.353 0.5L214.353 5.5ZM262.5 23L262.5 244.5L267.5 244.5L267.5 23L262.5 23ZM5.50002 298L5.50002 264L0.500019 264L0.500018 298L5.50002 298ZM5.50001 486.5L5.50001 446L0.500011 446L0.500009 486.5L5.50001 486.5ZM5.49997 634.5L5.49997 590L0.499974 590L0.499972 634.5L5.49997 634.5ZM5.49999 982.5L5.49999 969L0.499988 969L0.499988 982.5L5.49999 982.5ZM5.49999 864.5L5.49999 825L0.499995 825L0.499993 864.5L5.49999 864.5ZM262.5 244.5L262.5 306.5L267.5 306.5L267.5 244.5L262.5 244.5ZM262.5 964.5L262.5 982.5L267.5 982.5L267.5 964.5L262.5 964.5ZM262.5 760.5L262.5 825L267.5 825L267.5 760.5L262.5 760.5ZM262.5 603.5L262.5 668L267.5 668L267.5 603.5L262.5 603.5ZM262.5 400L262.5 469.5L267.5 469.5L267.5 400L262.5 400ZM245 5.5C254.665 5.5 262.5 13.335 262.5 23L267.5 23C267.5 10.5736 257.426 0.5 245 0.5L245 5.5ZM189.97 246.5C202.397 246.5 212.47 236.426 212.47 224L207.47 224C207.47 233.665 199.635 241.5 189.97 241.5L189.97 246.5ZM23 1000C13.335 1000 5.49999 992.165 5.49999 982.5L0.499988 982.5C0.499987 994.926 10.5736 1005 23 1005L23 1000ZM23 241.5C10.5736 241.5 0.50002 251.574 0.500019 264L5.50002 264C5.50002 254.335 13.335 246.5 23 246.5L23 241.5ZM245 1005C257.426 1005 267.5 994.926 267.5 982.5L262.5 982.5C262.5 992.165 254.665 1000 245 1000L245 1005Z" fill="#CC4C06"/>
</svg>
